<?xml version="1.0" encoding="UTF-8" standalone="no"?>
<svg
   xmlns:dc="http://purl.org/dc/elements/1.1/"
   xmlns:cc="http://creativecommons.org/ns#"
   xmlns:rdf="http://www.w3.org/1999/02/22-rdf-syntax-ns#"
   xmlns:svg="http://www.w3.org/2000/svg"
   xmlns="http://www.w3.org/2000/svg"
   version="1.1"
   id="svg8976"
   viewBox="0 0 410.91065 543.39417"
   height="153.35791mm"
   width="115.96812mm">
  <defs
     id="defs8978" />
  <metadata
     id="metadata8981">
    <rdf:RDF>
      <cc:Work
         rdf:about="">
        <dc:format>image/svg+xml</dc:format>
        <dc:type
           rdf:resource="http://purl.org/dc/dcmitype/StillImage" />
        <dc:title></dc:title>
      </cc:Work>
    </rdf:RDF>
  </metadata>
  <g
     transform="translate(-165.68498,-68.046761)"
     id="layer1">
    <path
       d="m 169.25733,93.574002 403.795,0 0,-0.637738 -403.795,0 0,0.637738 z"
       style="fill:#231f20;fill-opacity:1;fill-rule:nonzero;stroke:none"
       id="path54" />
    <path
       d="m 169.25733,561.0065 403.795,0 0,-0.63783 -403.795,0 0,0.63783 z"
       style="fill:#231f20;fill-opacity:1;fill-rule:nonzero;stroke:none"
       id="path56" />
    <path
       d="m 289.51733,116.3215 283.535,0 0,-0.28344 -283.535,0 0,0.28344 z"
       style="fill:#231f20;fill-opacity:1;fill-rule:nonzero;stroke:none"
       id="path58" />
    <path
       d="m 289.51733,139.77775 121.3225,0 0,-0.28351 -121.3225,0 0,0.28351 z"
       style="fill:#231f20;fill-opacity:1;fill-rule:nonzero;stroke:none"
       id="path60" />
    <path
       d="m 417.85608,139.77775 155.19625,0 0,-0.28351 -155.19625,0 0,0.28351 z"
       style="fill:#231f20;fill-opacity:1;fill-rule:nonzero;stroke:none"
       id="path62" />
    <path
       d="m 169.25733,166.6365 403.795,0 0,-0.35431 -403.795,0 0,0.35431 z"
       style="fill:#231f20;fill-opacity:1;fill-rule:nonzero;stroke:none"
       id="path64" />
    <text
       y="79.18763"
       x="169.25758"
       style="font-variant:normal;font-weight:normal;font-size:9.99987507px;font-family:AdvP0068;-inkscape-font-specification:AdvP0068;writing-mode:lr-tb;fill:#231f20;fill-opacity:1;fill-rule:nonzero;stroke:none"
       id="text66">
      <tspan
         x="169.25758 174.77751 180.29744 186.33739 189.03734 196.82423"
         y="79.18763"
         id="tspan68">Table2</tspan>
    </text>
    <text
       y="79.18763"
       x="207.31212"
       style="font-variant:normal;font-weight:normal;font-size:9.99987507px;font-family:AdvP10087B;-inkscape-font-specification:AdvP10087B;writing-mode:lr-tb;fill:#231f20;fill-opacity:1;fill-rule:nonzero;stroke:none"
       id="text70">
      <tspan
         x="207.31212 214.49202 218.96196 226.09187 229.42183 234.42177 239.76872 243.09865 248.09859 251.94853 255.6425 257.82248 263.34241 271.02032 276.02026 281.36719 286.36716 288.54712 293.01706 296.67401 301.67395 307.72888 313.24881 318.78375 324.30365 327.63361 332.46057 337.98047 340.16046 344.63043 347.83838 353.35828 356.68829 362.64917 368.16913 373.70404 379.224 384.22394 387.38086 391.85083 396.85077 399.0307 403.32568 408.32562 416.01056 421.53046 426.5304 431.88434 436.88428 442.40417 445.73419 451.72711 456.72699 462.24695 469.8689 474.33881 479.8587 483.54565 486.87561 492.97058 498.49054 504.02545 506.20538 511.20538 516.00232 520.47223 522.65222 528.17212 535.84503 539.17505 544.69495 551.78986 556.78979"
         y="79.18763"
         id="tspan72">OLSregressionanalysesofpredictorsofperceivedbeneftsandcostsofleavingtheEU</tspan>
    </text>
    <text
       y="108.52624"
       x="289.51611"
       style="font-variant:normal;font-weight:normal;font-size:9.99987507px;font-family:AdvP0068;-inkscape-font-specification:AdvP0068;writing-mode:lr-tb;fill:#231f20;fill-opacity:1;fill-rule:nonzero;stroke:none"
       id="text74">
      <tspan
         x="289.51611 295.55603 301.07596 307.11588 312.63583 319.29572 323.14569 327.35864 330.57861 334.94855 340.98846 345.3584 349.20837 355.84729 361.88721 368.03613 370.73608 376.25598 381.77594 387.2959 389.99585 396.03577 404.24866 409.76862"
         y="108.52624"
         id="tspan76">Beneﬁts-costsofleavingEU</tspan>
      <tspan
         x="289.51611 295.03601 299.40598 305.44589 311.48581 317.52576 326.22467 334.01953 343.51544 346.21539 352.25531 356.10529 361.62518 365.47516 371.51508 377.03503 380.88495 383.5849 389.50787 395.54779 401.06769 417.85449 420.55444 429.40436 438.25421 440.95422 446.99414 450.84412 456.36401 460.21393 462.91394 468.95386 474.99377 478.09076 480.79071 486.83063 493.49054 499.53046 505.05042 511.09033 515.46027 523.16217 527.01215 532.53204 536.38202 540.23193 546.27191 550.12183 552.82178 557.19177"
         y="131.98296"
         id="tspan78">Economy&amp;internationalImmigration-inﬂuenceterrorism</tspan>
      <tspan
         x="169.25658 174.77654 178.62648 184.14641 190.18633 192.88631 197.25624 201.10619 207.1461 289.51611 363.35815 368.87811 371.57806 377.09802 417.85449 533.86206 539.38196 542.08191 547.60187"
         y="155.4397"
         id="tspan80">PredictorBS.E.BS.E.</tspan>
    </text>
    <text
       y="185.34531"
       x="169.25658"
       style="font-variant:normal;font-weight:normal;font-size:9.99987507px;font-family:AdvP10087B;-inkscape-font-specification:AdvP10087B;writing-mode:lr-tb;fill:#231f20;fill-opacity:1;fill-rule:nonzero;stroke:none"
       id="text82">
      <tspan
         x="169.25658 175.91649 180.91643 186.43636 191.43629 194.76625 196.94624 201.41618 208.6581 213.65804 216.98799 220.31795 222.49791 225.82787 231.34779 236.86775 241.86766 247.91759 251.24754 256.76752 264.57739 269.57733 272.90732 278.42725"
         y="185.34531"
         id="tspan84">Negativeattitudestowards</tspan>
      <tspan
         x="179.24846 181.42842 189.75832 198.08821 200.2682 205.78813 209.11809 214.11803 217.44798 219.62794 225.02788 297.16901 302.68893 305.4989 311.01883 316.53876 322.05872 327.57861 333.09857 371.01111 376.53101 379.341 384.8609 390.38086 425.57739 431.09735 433.90729 439.42725 444.94714 450.4671 455.98706 461.36499 529.67908 535.19904 538.00903 543.52893 549.04889"
         y="197.81715"
         id="tspan86">Immigration0.227***0.0130.474***0.020</tspan>
      <tspan
         x="169.25658 174.25652 183.21742 189.87733 195.39726 200.91719 204.24715 207.5771 213.09703 217.51698 223.03691 228.64284 235.30275 243.66667 248.66658 253.13655 258.65646 264.17642 269.69635 278.02625 297.17099 302.69095 305.50092 311.02084 316.54074 322.06067 327.58063 333.10059 371.01306 376.53302 379.34296 384.86292 390.38281 425.57941 431.09937 433.9093 439.42926 444.94916 450.46906 455.98901 461.36694 529.68109 535.20105 538.01099 543.53094 549.05084"
         y="210.35999"
         id="tspan88">EUControlofUKEconomy0.141***0.0230.204***0.036</tspan>
      <tspan
         x="169.25658 174.25652 179.25645 182.58641 185.91637 192.64229 194.82225 199.82219 204.82213 210.34206 215.342 220.91792 223.09792 231.42781 236.42775 241.94768 246.94762"
         y="222.83282"
         id="tspan90">Partyleaderimages</tspan>
      <tspan
         x="179.24846 185.90837 190.90831 199.2382 204.23814 207.5681 213.08803"
         y="235.37569"
         id="tspan92">Cameron</tspan>
    </text>
    <text
       y="235.37569"
       x="297.17001"
       style="font-variant:normal;font-weight:normal;font-size:9.99987507px;font-family:AdvP10087B;-inkscape-font-specification:AdvP10087B;writing-mode:lr-tb;fill:#231f20;fill-opacity:1;fill-rule:nonzero;stroke:none"
       id="text98">
      <tspan
         x="297.17001 302.68994 305.49991 311.01984 316.53976 322.05969 327.57965 333.09955 371.01208 376.53204 379.34198 384.86188 390.38184"
         y="235.37569"
         id="tspan100">0.046***0.004</tspan>
    </text>
    <text
       y="235.37569"
       x="425.57843"
       style="font-variant:normal;font-weight:normal;font-size:9.99987507px;font-family:AdvP10087B;-inkscape-font-specification:AdvP10087B;writing-mode:lr-tb;fill:#231f20;fill-opacity:1;fill-rule:nonzero;stroke:none"
       id="text106">
      <tspan
         x="425.57843 431.09833 433.90833 439.42822 444.94818 450.46808 455.98804 461.36597 529.68011 535.20001 538.01001 543.52997 549.04987"
         y="235.37569"
         id="tspan108">0.063***0.006</tspan>
      <tspan
         x="179.24846 185.90837 191.42833 194.75826 200.27821 204.74815"
         y="247.84853"
         id="tspan110">Corbyn</tspan>
    </text>
    <text
       y="247.84853"
       x="297.17001"
       style="font-variant:normal;font-weight:normal;font-size:9.99987507px;font-family:AdvP10087B;-inkscape-font-specification:AdvP10087B;writing-mode:lr-tb;fill:#231f20;fill-opacity:1;fill-rule:nonzero;stroke:none"
       id="text116">
      <tspan
         x="297.17001 302.68994 305.49991 311.01984 316.53976 322.05969 327.57965 333.09955 371.01208 376.53204 379.34198 384.86188 390.38184"
         y="247.84853"
         id="tspan118">0.029***0.004</tspan>
    </text>
    <text
       y="247.84853"
       x="425.57843"
       style="font-variant:normal;font-weight:normal;font-size:9.99987507px;font-family:AdvP10087B;-inkscape-font-specification:AdvP10087B;writing-mode:lr-tb;fill:#231f20;fill-opacity:1;fill-rule:nonzero;stroke:none"
       id="text124">
      <tspan
         x="425.57843 431.09833 433.90833 439.42822 444.94818 450.46808 455.98804 461.36597 529.68011 535.20001 538.01001 543.52997 549.04987"
         y="247.84853"
         id="tspan126">0.051***0.006</tspan>
      <tspan
         x="179.24846 183.7184 188.71834 192.04829 197.04823 202.56816 297.16901 302.68893 305.4989 311.01886 316.53876 322.05872 327.57861 333.09857 371.01111 376.53101 379.341 384.8609 390.38086 425.57739 431.09735 433.90729 439.42725 444.94714 450.4671 455.98706 461.36499 529.67908 535.19904 538.00903 543.52893 549.04889"
         y="260.32135"
         id="tspan128">Farage0.039***0.0050.062***0.007</tspan>
      <tspan
         x="179.24846 182.57841 188.09834 193.61827 199.13823 202.98817 208.5081 297.16901 302.68893 305.4989 311.01886 316.53876 322.05872 327.57861 333.09857 371.01111 376.53101 379.341 384.8609 390.38086 425.57739 431.09735 433.90729 439.42725 444.94714 450.4671 455.98706 461.36499 529.67908 535.19904 538.00903 543.52893 549.04889"
         y="272.8642"
         id="tspan130">Johnson0.051***0.0040.082***0.007</tspan>
      <tspan
         x="169.25658 174.25655 179.25645 182.58641 185.9164 188.09636 191.9463 196.94624 202.46617 206.31612 211.83604 213.90202"
         y="285.33704"
         id="tspan132">Partisanship</tspan>
      <tspan
         x="179.24846 185.90837 191.42833 196.94823 200.79817 205.79814 209.1281 213.59804 218.59798 221.9279 224.10789 228.57784"
         y="297.87988"
         id="tspan134">Conservative</tspan>
    </text>
    <text
       y="297.87988"
       x="297.17001"
       style="font-variant:normal;font-weight:normal;font-size:9.99987507px;font-family:AdvP10087B;-inkscape-font-specification:AdvP10087B;writing-mode:lr-tb;fill:#231f20;fill-opacity:1;fill-rule:nonzero;stroke:none"
       id="text140">
      <tspan
         x="297.17001 302.68994 305.49991 311.01984 316.53976 322.05969 371.01208 376.53204 379.34198 384.86188 390.38184"
         y="297.87988"
         id="tspan142">0.044*0.028</tspan>
    </text>
    <text
       y="297.87988"
       x="425.57843"
       style="font-variant:normal;font-weight:normal;font-size:9.99987507px;font-family:AdvP10087B;-inkscape-font-specification:AdvP10087B;writing-mode:lr-tb;fill:#231f20;fill-opacity:1;fill-rule:nonzero;stroke:none"
       id="text148">
      <tspan
         x="425.57843 431.09833 433.90833 439.42822 444.94818 450.46808 529.68011 535.20001 538.01001 543.52997 549.04987"
         y="297.87988"
         id="tspan150">0.097*0.043</tspan>
      <tspan
         x="179.24846 183.7184 188.71834 194.23827 199.75819 205.27812"
         y="310.35275"
         id="tspan152">Labour</tspan>
    </text>
    <text
       y="310.35275"
       x="297.17001"
       style="font-variant:normal;font-weight:normal;font-size:9.99987507px;font-family:AdvP10087B;-inkscape-font-specification:AdvP10087B;writing-mode:lr-tb;fill:#231f20;fill-opacity:1;fill-rule:nonzero;stroke:none"
       id="text158">
      <tspan
         x="297.17001 302.68994 305.49991 311.01984 316.53976 322.05969 327.57965 333.09955 371.01208 376.53204 379.34198 384.86188 390.38184"
         y="310.35275"
         id="tspan160">0.090***0.028</tspan>
    </text>
    <text
       y="310.35275"
       x="425.57843"
       style="font-variant:normal;font-weight:normal;font-size:9.99987507px;font-family:AdvP10087B;-inkscape-font-specification:AdvP10087B;writing-mode:lr-tb;fill:#231f20;fill-opacity:1;fill-rule:nonzero;stroke:none"
       id="text166">
      <tspan
         x="425.57843 431.09833 433.90833 439.42822 444.94818 450.46808 455.98804 461.36597 529.68011 535.20001 538.01001 543.52997 549.04987"
         y="310.35275"
         id="tspan168">0.140***0.043</tspan>
      <tspan
         x="179.24846 183.7184 185.89839 191.41829 196.41826 199.74821 204.74815 209.1541 215.81401 220.81392 229.14384 234.66377 239.13371 242.46367 247.46361"
         y="322.82559"
         id="tspan170">LiberalDemocrat</tspan>
    </text>
    <text
       y="322.82559"
       x="297.17001"
       style="font-variant:normal;font-weight:normal;font-size:9.99987507px;font-family:AdvP10087B;-inkscape-font-specification:AdvP10087B;writing-mode:lr-tb;fill:#231f20;fill-opacity:1;fill-rule:nonzero;stroke:none"
       id="text176">
      <tspan
         x="297.17001 302.68994 305.49991 311.01984 316.53976 322.05969 327.57965 333.09955 371.01208 376.53204 379.34198 384.86188 390.38184"
         y="322.82559"
         id="tspan178">0.141***0.040</tspan>
    </text>
    <text
       y="322.82559"
       x="425.57843"
       style="font-variant:normal;font-weight:normal;font-size:9.99987507px;font-family:AdvP10087B;-inkscape-font-specification:AdvP10087B;writing-mode:lr-tb;fill:#231f20;fill-opacity:1;fill-rule:nonzero;stroke:none"
       id="text184">
      <tspan
         x="425.57843 431.09833 433.90833 439.42822 444.94818 450.46808 455.98804 461.36597 529.68011 535.20001 538.01001 543.52997 549.04987"
         y="322.82559"
         id="tspan186">0.202***0.062</tspan>
      <tspan
         x="179.24846 185.90837 192.04829 194.22826"
         y="335.36841"
         id="tspan188">UKIP</tspan>
    </text>
    <text
       y="335.36841"
       x="297.17001"
       style="font-variant:normal;font-weight:normal;font-size:9.99987507px;font-family:AdvP10087B;-inkscape-font-specification:AdvP10087B;writing-mode:lr-tb;fill:#231f20;fill-opacity:1;fill-rule:nonzero;stroke:none"
       id="text194">
      <tspan
         x="297.17001 302.68994 305.49991 311.01984 316.53976 371.01208 376.53204 379.34198 384.86188 390.38184"
         y="335.36841"
         id="tspan196">0.0500.038</tspan>
    </text>
    <text
       y="335.36841"
       x="425.57843"
       style="font-variant:normal;font-weight:normal;font-size:9.99987507px;font-family:AdvP10087B;-inkscape-font-specification:AdvP10087B;writing-mode:lr-tb;fill:#231f20;fill-opacity:1;fill-rule:nonzero;stroke:none"
       id="text202">
      <tspan
         x="425.57843 431.09833 433.90833 439.42822 444.94818 529.68011 535.20001 538.01001 543.52997 549.04987"
         y="335.36841"
         id="tspan204">0.0950.059</tspan>
      <tspan
         x="179.24846 184.2484 190.90831 297.16901 302.68893 305.4989 311.01886 316.53876 371.01111 376.53101 379.341 384.8609 390.38086"
         y="347.84125"
         id="tspan206">SNP0.0180.063</tspan>
    </text>
    <text
       y="347.84125"
       x="425.57739"
       style="font-variant:normal;font-weight:normal;font-size:9.99987507px;font-family:AdvP10087B;-inkscape-font-specification:AdvP10087B;writing-mode:lr-tb;fill:#231f20;fill-opacity:1;fill-rule:nonzero;stroke:none"
       id="text212">
      <tspan
         x="425.57739 431.09735 433.90729 439.42725 444.94714 529.67908 535.19904 538.00903 543.52893 549.04889"
         y="347.84125"
         id="tspan214">0.0010.097</tspan>
      <tspan
         x="179.24745 186.42738 189.75734 195.27727 200.27721 205.82213 211.34206 216.342 219.67195 223.00191 225.1819 230.18184"
         y="360.38409"
         id="tspan216">Otherparties</tspan>
    </text>
    <text
       y="360.38409"
       x="297.16901"
       style="font-variant:normal;font-weight:normal;font-size:9.99987507px;font-family:AdvP10087B;-inkscape-font-specification:AdvP10087B;writing-mode:lr-tb;fill:#231f20;fill-opacity:1;fill-rule:nonzero;stroke:none"
       id="text222">
      <tspan
         x="297.16901 302.68893 305.4989 311.01883 316.53876 371.01111 376.53101 379.34094 384.8609 390.38086"
         y="360.38409"
         id="tspan224">0.5750.598</tspan>
    </text>
    <text
       y="360.38409"
       x="425.57739"
       style="font-variant:normal;font-weight:normal;font-size:9.99987507px;font-family:AdvP10087B;-inkscape-font-specification:AdvP10087B;writing-mode:lr-tb;fill:#231f20;fill-opacity:1;fill-rule:nonzero;stroke:none"
       id="text230">
      <tspan
         x="425.57739 431.09735 433.90729 439.42725 444.94714 529.67908 535.19904 538.00903 543.52893 549.04889"
         y="360.38409"
         id="tspan232">0.0320.073</tspan>
      <tspan
         x="169.2556 175.91548 180.91545 184.24541 186.42537 191.9453 197.46523 202.46516 206.88512 209.06508 214.58504 219.58495 225.1049 228.43483 230.61482 233.94478"
         y="372.85693"
         id="tspan234">Nationalidentity</tspan>
      <tspan
         x="179.24745 184.24742 189.76732 195.28725 197.46724 199.6472 203.49715 297.168 302.68796 305.49792 311.01782 316.53775 322.05768 371.01007 376.53003 379.33997 384.85992 390.37982 425.57642 431.09631 433.90631 439.42627 444.94617 450.46613 455.98602 529.6781 535.19806 538.008 543.52795 549.04785"
         y="385.32977"
         id="tspan236">English0.041*0.0210.091**0.032</tspan>
      <tspan
         x="179.24745 184.24742 188.71733 194.23729 197.56721 200.89717 203.07716 206.92711"
         y="397.87265"
         id="tspan238">Scottish</tspan>
    </text>
    <text
       y="397.87262"
       x="297.16901"
       style="font-variant:normal;font-weight:normal;font-size:9.99987507px;font-family:AdvP10087B;-inkscape-font-specification:AdvP10087B;writing-mode:lr-tb;fill:#231f20;fill-opacity:1;fill-rule:nonzero;stroke:none"
       id="text244">
      <tspan
         x="297.16901 302.68893 305.4989 311.01883 316.53876 322.05872 371.01111 376.53101 379.34094 384.8609 390.38086"
         y="397.87262"
         id="tspan246">0.098*0.047</tspan>
    </text>
    <text
       y="397.87262"
       x="425.57739"
       style="font-variant:normal;font-weight:normal;font-size:9.99987507px;font-family:AdvP10087B;-inkscape-font-specification:AdvP10087B;writing-mode:lr-tb;fill:#231f20;fill-opacity:1;fill-rule:nonzero;stroke:none"
       id="text252">
      <tspan
         x="425.57739 431.09735 433.90729 439.42725 444.94714 529.67908 535.19904 538.00903 543.52893 549.04889"
         y="397.87262"
         id="tspan254">0.0840.072</tspan>
      <tspan
         x="179.24745 188.71733 193.71727 195.89723 199.74721 297.168 302.68796 305.49792 311.01782 316.53775 371.01007 376.53003 379.33997 384.85992 390.37982 425.57642 431.09631 433.90631 439.42627 444.94617 450.46613 529.6781 535.19806 538.008 543.52795 549.04785"
         y="410.34546"
         id="tspan256">Welsh0.0620.0530.146*0.081</tspan>
      <tspan
         x="179.24745 184.24742 189.76732 193.09731 198.6172 204.13713 209.13707 214.13704"
         y="422.88834"
         id="tspan258">European</tspan>
    </text>
    <text
       y="422.88834"
       x="297.16901"
       style="font-variant:normal;font-weight:normal;font-size:9.99987507px;font-family:AdvP10087B;-inkscape-font-specification:AdvP10087B;writing-mode:lr-tb;fill:#231f20;fill-opacity:1;fill-rule:nonzero;stroke:none"
       id="text264">
      <tspan
         x="297.16901 302.68893 305.4989 311.01883 316.53876 322.05872 327.49963 333.01953 335.82953 341.34943 346.86938"
         y="422.88834"
         id="tspan266">0.140*0.061</tspan>
    </text>
    <text
       y="422.88834"
       x="371.01111"
       style="font-variant:normal;font-weight:normal;font-size:9.99987507px;font-family:AdvP10087B;-inkscape-font-specification:AdvP10087B;writing-mode:lr-tb;fill:#231f20;fill-opacity:1;fill-rule:nonzero;stroke:none"
       id="text272">
      <tspan
         x="371.01111 376.53101 379.34094 384.8609 390.38086 395.90076 401.42072 425.57843 431.09833 433.90833 439.42822 444.94812"
         y="422.88834"
         id="tspan274">0.240**0.094</tspan>
      <tspan
         x="179.24846 186.42836 189.75832 195.27824 200.27818"
         y="435.36118"
         id="tspan276">Other</tspan>
    </text>
    <text
       y="435.36118"
       x="297.17001"
       style="font-variant:normal;font-weight:normal;font-size:9.99987507px;font-family:AdvP10087B;-inkscape-font-specification:AdvP10087B;writing-mode:lr-tb;fill:#231f20;fill-opacity:1;fill-rule:nonzero;stroke:none"
       id="text282">
      <tspan
         x="297.17001 302.68994 305.49991 311.01984 316.53976"
         y="435.36118"
         id="tspan284">0.067</tspan>
    </text>
    <text
       y="457.06256"
       x="303.54144"
       transform="scale(1.0607253,0.94275115)"
       style="font-variant:normal;font-weight:normal;font-size:7.07039785px;font-family:AdvP10087B;-inkscape-font-specification:AdvP10087B;writing-mode:lr-tb;fill:#231f20;fill-opacity:1;fill-rule:nonzero;stroke:none"
       id="text286">
      <tspan
         x="303.54144"
         y="457.06256"
         id="tspan288">†</tspan>
    </text>
    <text
       y="435.36075"
       x="371.01349"
       style="font-variant:normal;font-weight:normal;font-size:9.99987507px;font-family:AdvP10087B;-inkscape-font-specification:AdvP10087B;writing-mode:lr-tb;fill:#231f20;fill-opacity:1;fill-rule:nonzero;stroke:none"
       id="text290">
      <tspan
         x="371.01349 376.53339 379.34338 384.86328 390.38324 425.57983 431.09973 433.90973 439.42963 444.94958 529.68152 535.20142 538.01141 543.53131 549.05127"
         y="435.36075"
         id="tspan292">0.0460.0480.071</tspan>
      <tspan
         x="169.25899 175.9189 180.91884 189.24873 194.76866 199.7686 201.94856 207.46849 215.1804 219.65038 225.17027 230.6902 234.02019 239.0201 243.49007"
         y="447.83359"
         id="tspan294">Campaigncontact</tspan>
      <tspan
         x="179.25087 184.7708 189.77074 198.1006 203.10054 205.28053 212.98344 219.64336 224.6433 232.97319 238.49312 243.49306 245.67302 251.19295"
         y="460.37643"
         id="tspan296">RemainCampaign</tspan>
    </text>
    <text
       y="460.37643"
       x="297.17239"
       style="font-variant:normal;font-weight:normal;font-size:9.99987507px;font-family:AdvP10087B;-inkscape-font-specification:AdvP10087B;writing-mode:lr-tb;fill:#231f20;fill-opacity:1;fill-rule:nonzero;stroke:none"
       id="text302">
      <tspan
         x="297.17239 302.69232 305.50229 311.02222 316.54218 322.06207 371.01447 376.53442 379.34436 384.86432 390.38422"
         y="460.37643"
         id="tspan304">0.026*0.012</tspan>
    </text>
    <text
       y="460.37643"
       x="425.58081"
       style="font-variant:normal;font-weight:normal;font-size:9.99987507px;font-family:AdvP10087B;-inkscape-font-specification:AdvP10087B;writing-mode:lr-tb;fill:#231f20;fill-opacity:1;fill-rule:nonzero;stroke:none"
       id="text310">
      <tspan
         x="425.58081 431.10071 433.91071 439.43066 444.95056"
         y="460.37643"
         id="tspan312">0.029</tspan>
    </text>
    <text
       y="483.59741"
       x="424.59964"
       transform="scale(1.0607253,0.94275115)"
       style="font-variant:normal;font-weight:normal;font-size:7.07039785px;font-family:AdvP10087B;-inkscape-font-specification:AdvP10087B;writing-mode:lr-tb;fill:#231f20;fill-opacity:1;fill-rule:nonzero;stroke:none"
       id="text314">
      <tspan
         x="424.59964"
         y="483.59741"
         id="tspan316">†</tspan>
    </text>
    <text
       y="460.3765"
       x="529.68274"
       style="font-variant:normal;font-weight:normal;font-size:9.99987507px;font-family:AdvP10087B;-inkscape-font-specification:AdvP10087B;writing-mode:lr-tb;fill:#231f20;fill-opacity:1;fill-rule:nonzero;stroke:none"
       id="text318">
      <tspan
         x="529.68274 535.20264 538.01263 543.53253 549.05249"
         y="460.3765"
         id="tspan320">0.019</tspan>
      <tspan
         x="179.25108 183.72102 188.72099 193.7209 198.19087 205.40074 209.87071 214.87065 223.20055 228.72047 233.72041 235.90038 241.4203"
         y="472.84933"
         id="tspan322">Leavecampaign</tspan>
    </text>
    <text
       y="472.84933"
       x="297.17264"
       style="font-variant:normal;font-weight:normal;font-size:9.99987507px;font-family:AdvP10087B;-inkscape-font-specification:AdvP10087B;writing-mode:lr-tb;fill:#231f20;fill-opacity:1;fill-rule:nonzero;stroke:none"
       id="text328">
      <tspan
         x="297.17264 302.69257 305.50253 311.02246 316.54239 371.01471 376.53467 379.3446 384.86456 390.38446 425.58105 431.10101 433.91095 439.43085 444.95081 529.68274 535.2027 538.01263 543.53259 549.05249"
         y="472.84933"
         id="tspan330">0.0130.0180.0050.027</tspan>
      <tspan
         x="169.26021 174.26015 179.78011 184.25002 186.43001 191.94994 195.27989 200.79982 205.79976 214.12965 219.64958 225.03151 228.36147 233.36143 238.88136 244.40129 246.58125 251.05119"
         y="485.32217"
         id="tspan332">Socio-demographics</tspan>
      <tspan
         x="179.25209 185.912 191.43193 297.17264 302.69257 305.50253 311.02246 316.54239 371.01471 376.53467 379.3446 384.86456 390.38446 425.58105 431.10101 433.91095 439.43085 444.95081 450.47076 529.68274 535.2027 538.01263 543.53259 549.05249"
         y="497.86502"
         id="tspan334">Age0.0010.0010.002*0.001</tspan>
      <tspan
         x="179.25209 185.912 191.43193 193.61192 198.08186 203.0818 206.41176 210.2617 212.44167 215.77162 222.48055 227.48048 233.00044 238.52037 242.99031 247.99025 251.32021 253.37816 258.89813"
         y="510.33786"
         id="tspan336">UniversityEducation</tspan>
    </text>
    <text
       y="510.33786"
       x="297.17361"
       style="font-variant:normal;font-weight:normal;font-size:9.99987507px;font-family:AdvP10087B;-inkscape-font-specification:AdvP10087B;writing-mode:lr-tb;fill:#231f20;fill-opacity:1;fill-rule:nonzero;stroke:none"
       id="text342">
      <tspan
         x="297.17361 302.69357 305.50354 311.02347 316.5434 322.06335 371.01575 376.53564 379.34558 384.86554 390.3855"
         y="510.33786"
         id="tspan344">0.041*0.020</tspan>
    </text>
    <text
       y="510.33786"
       x="425.58203"
       style="font-variant:normal;font-weight:normal;font-size:9.99987507px;font-family:AdvP10087B;-inkscape-font-specification:AdvP10087B;writing-mode:lr-tb;fill:#231f20;fill-opacity:1;fill-rule:nonzero;stroke:none"
       id="text350">
      <tspan
         x="425.58203 431.10199 433.91193 439.43188 444.95178"
         y="510.33786"
         id="tspan352">0.038</tspan>
    </text>
    <text
       y="536.66705"
       x="424.59964"
       transform="scale(1.0607253,0.94275115)"
       style="font-variant:normal;font-weight:normal;font-size:7.07039785px;font-family:AdvP10087B;-inkscape-font-specification:AdvP10087B;writing-mode:lr-tb;fill:#231f20;fill-opacity:1;fill-rule:nonzero;stroke:none"
       id="text354">
      <tspan
         x="424.59964"
         y="536.66705"
         id="tspan356">†</tspan>
    </text>
    <text
       y="510.33713"
       x="529.68274"
       style="font-variant:normal;font-weight:normal;font-size:9.99987507px;font-family:AdvP10087B;-inkscape-font-specification:AdvP10087B;writing-mode:lr-tb;fill:#231f20;fill-opacity:1;fill-rule:nonzero;stroke:none"
       id="text358">
      <tspan
         x="529.68274 535.20264 538.01263 543.53253 549.05249"
         y="510.33713"
         id="tspan360">0.030</tspan>
      <tspan
         x="179.25108 186.43098 191.43095 196.95085 202.47081 207.47072"
         y="522.87994"
         id="tspan362">Gender</tspan>
    </text>
    <text
       y="522.87994"
       x="297.17264"
       style="font-variant:normal;font-weight:normal;font-size:9.99987507px;font-family:AdvP10087B;-inkscape-font-specification:AdvP10087B;writing-mode:lr-tb;fill:#231f20;fill-opacity:1;fill-rule:nonzero;stroke:none"
       id="text368">
      <tspan
         x="297.17264 302.69257 305.50253 311.02246 316.54239 371.01471 376.53467 379.3446 384.86456 390.38446 425.58105 431.10101 433.91095 439.43085 444.95081 529.68274 535.2027 538.01263 543.53259 549.05249"
         y="522.87994"
         id="tspan370">0.0050.0180.0170.028</tspan>
      <tspan
         x="179.25209 184.25203 189.77196 194.2419 196.42189 201.42183 205.82677 210.29671 212.47667 217.47661 221.32655"
         y="535.35278"
         id="tspan372">Socialclass</tspan>
    </text>
    <text
       y="535.35278"
       x="297.17361"
       style="font-variant:normal;font-weight:normal;font-size:9.99987507px;font-family:AdvP10087B;-inkscape-font-specification:AdvP10087B;writing-mode:lr-tb;fill:#231f20;fill-opacity:1;fill-rule:nonzero;stroke:none"
       id="text378">
      <tspan
         x="297.17361 302.69357 305.50354 311.02347 316.5434 322.06335 327.58325 371.01575 376.53564 379.34558 384.86554 390.3855"
         y="535.35278"
         id="tspan380">0.024**0.008</tspan>
    </text>
    <text
       y="535.35278"
       x="425.58203"
       style="font-variant:normal;font-weight:normal;font-size:9.99987507px;font-family:AdvP10087B;-inkscape-font-specification:AdvP10087B;writing-mode:lr-tb;fill:#231f20;fill-opacity:1;fill-rule:nonzero;stroke:none"
       id="text386">
      <tspan
         x="425.58203 431.10199 433.91193 439.43188 444.95178 450.47174 529.68378 535.20367 538.01361 543.53357 549.05347"
         y="535.35278"
         id="tspan388">0.023*0.013</tspan>
      <tspan
         x="169.26021 175.92012 181.44008 186.95998 190.80992 194.13991 199.13985 204.65977"
         y="547.82562"
         id="tspan390">Constant</tspan>
    </text>
    <text
       y="547.82562"
       x="297.17361"
       style="font-variant:normal;font-weight:normal;font-size:9.99987507px;font-family:AdvP10087B;-inkscape-font-specification:AdvP10087B;writing-mode:lr-tb;fill:#231f20;fill-opacity:1;fill-rule:nonzero;stroke:none"
       id="text396">
      <tspan
         x="297.17361 302.69357 305.50354 311.02347 316.5434 371.01575 376.53564 379.34558 384.86554 390.3855"
         y="547.82562"
         id="tspan398">0.0200.052</tspan>
    </text>
    <text
       y="547.82562"
       x="425.58203"
       style="font-variant:normal;font-weight:normal;font-size:9.99987507px;font-family:AdvP10087B;-inkscape-font-specification:AdvP10087B;writing-mode:lr-tb;fill:#231f20;fill-opacity:1;fill-rule:nonzero;stroke:none"
       id="text404">
      <tspan
         x="425.58203 431.10199 433.91193 439.43188 444.95178"
         y="547.82562"
         id="tspan406">0.133</tspan>
    </text>
    <text
       y="576.4317"
       x="424.59964"
       transform="scale(1.0607253,0.94275115)"
       style="font-variant:normal;font-weight:normal;font-size:7.07039785px;font-family:AdvP10087B;-inkscape-font-specification:AdvP10087B;writing-mode:lr-tb;fill:#231f20;fill-opacity:1;fill-rule:nonzero;stroke:none"
       id="text408">
      <tspan
         x="424.59964"
         y="576.4317"
         id="tspan410">†</tspan>
    </text>
    <text
       y="547.82538"
       x="529.68274"
       style="font-variant:normal;font-weight:normal;font-size:9.99987507px;font-family:AdvP10087B;-inkscape-font-specification:AdvP10087B;writing-mode:lr-tb;fill:#231f20;fill-opacity:1;fill-rule:nonzero;stroke:none"
       id="text412">
      <tspan
         x="529.68274 535.20264 538.01263 543.53253 549.05249"
         y="547.82538"
         id="tspan414">0.080</tspan>
    </text>
    <text
       y="576.10095"
       x="169.25758"
       style="font-variant:normal;font-weight:normal;font-size:8.74987507px;font-family:AdvP0074;-inkscape-font-specification:AdvP0074;writing-mode:lr-tb;fill:#231f20;fill-opacity:1;fill-rule:nonzero;stroke:none"
       id="text416">
      <tspan
         x="169.25758"
         y="576.10095"
         id="tspan418">R</tspan>
    </text>
    <text
       y="606.93854"
       x="164.18083"
       transform="scale(1.0607044,0.94276973)"
       style="font-variant:normal;font-weight:normal;font-size:6.18669081px;font-family:AdvP10087B;-inkscape-font-specification:AdvP10087B;writing-mode:lr-tb;fill:#231f20;fill-opacity:1;fill-rule:nonzero;stroke:none"
       id="text420">
      <tspan
         x="164.18083"
         y="606.93854"
         id="tspan422">2</tspan>
    </text>
    <text
       y="576.10095"
       x="179.17885"
       style="font-variant:normal;font-weight:normal;font-size:8.74987507px;font-family:AdvP4C4E74;-inkscape-font-specification:AdvP4C4E74;writing-mode:lr-tb;fill:#231f20;fill-opacity:1;fill-rule:nonzero;stroke:none"
       id="text424">
      <tspan
         x="179.17885"
         y="576.10095"
         id="tspan426">¼</tspan>
    </text>
    <text
       y="576.10095"
       x="187.39934"
       style="font-variant:normal;font-weight:normal;font-size:8.74987507px;font-family:AdvP10087B;-inkscape-font-specification:AdvP10087B;writing-mode:lr-tb;fill:#231f20;fill-opacity:1;fill-rule:nonzero;stroke:none"
       id="text428">
      <tspan
         x="187.39934 192.22926 194.68797 199.51793 206.39095 211.22087 213.67958 218.50951"
         y="576.10095"
         id="tspan430">0.690.75</tspan>
      <tspan
         x="169.25734"
         y="586.09332"
         id="tspan432">N</tspan>
    </text>
    <text
       y="586.09332"
       x="176.5565"
       style="font-variant:normal;font-weight:normal;font-size:8.74987507px;font-family:AdvP4C4E74;-inkscape-font-specification:AdvP4C4E74;writing-mode:lr-tb;fill:#231f20;fill-opacity:1;fill-rule:nonzero;stroke:none"
       id="text434">
      <tspan
         x="176.5565"
         y="586.09332"
         id="tspan436">¼</tspan>
    </text>
    <text
       y="586.09332"
       x="184.77699"
       style="font-variant:normal;font-weight:normal;font-size:8.74987507px;font-family:AdvP10087B;-inkscape-font-specification:AdvP10087B;writing-mode:lr-tb;fill:#231f20;fill-opacity:1;fill-rule:nonzero;stroke:none"
       id="text438">
      <tspan
         x="184.77699 189.60692 194.43687 199.2668"
         y="586.09332"
         id="tspan440">1736</tspan>
      <tspan
         x="169.25734 174.0873 178.91722 183.74715"
         y="596.08569"
         id="tspan442">***p</tspan>
    </text>
    <text
       y="596.08569"
       x="198.31218"
       style="font-variant:normal;font-weight:normal;font-size:8.74987507px;font-family:AdvP10087B;-inkscape-font-specification:AdvP10087B;writing-mode:lr-tb;fill:#231f20;fill-opacity:1;fill-rule:nonzero;stroke:none"
       id="text448">
      <tspan
         x="198.31218 203.14211 205.60085 210.43077 215.2607 220.09062 224.60292 229.43288 234.2628"
         y="596.08569"
         id="tspan450">0.001;**p</tspan>
    </text>
    <text
       y="596.08569"
       x="248.76921"
       style="font-variant:normal;font-weight:normal;font-size:8.74987507px;font-family:AdvP10087B;-inkscape-font-specification:AdvP10087B;writing-mode:lr-tb;fill:#231f20;fill-opacity:1;fill-rule:nonzero;stroke:none"
       id="text456">
      <tspan
         x="248.76921 253.59914 256.05786 260.88782 265.71774 270.24142 275.07135"
         y="596.08569"
         id="tspan458">0.01;*p</tspan>
    </text>
    <text
       y="596.08569"
       x="289.58829"
       style="font-variant:normal;font-weight:normal;font-size:8.74987507px;font-family:AdvP10087B;-inkscape-font-specification:AdvP10087B;writing-mode:lr-tb;fill:#231f20;fill-opacity:1;fill-rule:nonzero;stroke:none"
       id="text464">
      <tspan
         x="289.58829 294.41821 296.87692 301.70685 306.53677"
         y="596.08569"
         id="tspan466">0.05,</tspan>
    </text>
    <text
       y="628.13586"
       x="293.25867"
       transform="scale(1.0607044,0.94276973)"
       style="font-variant:normal;font-weight:normal;font-size:6.18669081px;font-family:AdvP10087B;-inkscape-font-specification:AdvP10087B;writing-mode:lr-tb;fill:#231f20;fill-opacity:1;fill-rule:nonzero;stroke:none"
       id="text468">
      <tspan
         x="293.25867"
         y="628.13586"
         id="tspan470">†</tspan>
    </text>
    <text
       y="596.08521"
       x="314.67499"
       style="font-variant:normal;font-weight:normal;font-size:8.74987507px;font-family:AdvP10087B;-inkscape-font-specification:AdvP10087B;writing-mode:lr-tb;fill:#231f20;fill-opacity:1;fill-rule:nonzero;stroke:none"
       id="text472">
      <tspan
         x="314.67499"
         y="596.08521"
         id="tspan474">p</tspan>
    </text>
    <text
       y="596.08521"
       x="329.20239"
       style="font-variant:normal;font-weight:normal;font-size:8.74987507px;font-family:AdvP10087B;-inkscape-font-specification:AdvP10087B;writing-mode:lr-tb;fill:#231f20;fill-opacity:1;fill-rule:nonzero;stroke:none"
       id="text480">
      <tspan
         x="329.20239 334.03235 336.49103 341.32098 346.15088 350.67456 355.50452 360.33447 364.70935 367.62311 370.5368 374.91174 376.81921 378.72668 383.10162 390.00439 392.91809 397.29303 400.66174 403.57544"
         y="596.08521"
         id="tspan482">0.10,one-tailedtest.</tspan>
    </text>
    <text
       y="606.07758"
       x="169.25728"
       style="font-variant:normal;font-weight:normal;font-size:8.74987507px;font-family:AdvP0074;-inkscape-font-specification:AdvP0074;writing-mode:lr-tb;fill:#231f20;fill-opacity:1;fill-rule:nonzero;stroke:none"
       id="text484">
      <tspan
         x="169.25728 175.0847 179.91463 182.7321"
         y="606.07758"
         id="tspan486">Note</tspan>
    </text>
    <text
       y="606.07758"
       x="187.18666"
       style="font-variant:normal;font-weight:normal;font-size:8.74987507px;font-family:AdvP10087B;-inkscape-font-specification:AdvP10087B;writing-mode:lr-tb;fill:#231f20;fill-opacity:1;fill-rule:nonzero;stroke:none"
       id="text488">
      <tspan
         x="187.18666 191.65083 197.47826 199.38573 204.21565 211.13857 214.50725 218.41847 223.2484 226.16209 230.53706 235.94096 240.77089 247.63341 252.46336 256.83829 261.66824 266.04315 270.94748 273.86118 276.7749 280.6861 285.51599 288.8847 293.83627 296.75 301.12491 305.03613 307.94983 312.77975 315.69345 321.11926 323.02673 327.85669 332.68658 334.59406 338.50525 342.88019 345.79388 352.29944 357.12939 360.04309 364.87299 367.78674 371.69794 376.07288 380.44781 384.35901 390.77875 395.6087 400.06238 402.97607 406.88727 411.26221 416.09216 419.00586 420.91333 425.74329 430.57318 433.94189"
         y="606.07758"
         id="tspan490">:Highscoresonbeneft-costfactorsindicatepro-Leaveperceptions.</tspan>
    </text>
  </g>
</svg>
