<?xml version="1.0" encoding="UTF-8" standalone="no"?>
<svg
   xmlns:dc="http://purl.org/dc/elements/1.1/"
   xmlns:cc="http://creativecommons.org/ns#"
   xmlns:rdf="http://www.w3.org/1999/02/22-rdf-syntax-ns#"
   xmlns:svg="http://www.w3.org/2000/svg"
   xmlns="http://www.w3.org/2000/svg"
   version="1.1"
   id="svg8685"
   viewBox="0 0 411.20661 504.84778"
   height="142.47926mm"
   width="116.05164mm">
  <defs
     id="defs8687" />
  <metadata
     id="metadata8690">
    <rdf:RDF>
      <cc:Work
         rdf:about="">
        <dc:format>image/svg+xml</dc:format>
        <dc:type
           rdf:resource="http://purl.org/dc/dcmitype/StillImage" />
        <dc:title></dc:title>
      </cc:Work>
    </rdf:RDF>
  </metadata>
  <g
     transform="translate(-169.39668,-279.93832)"
     id="layer1">
    <path
       d="m 172.96904,305.46555 403.79499,0 0,-0.63773 -403.79499,0 0,0.63773 z"
       style="fill:#231f20;fill-opacity:1;fill-rule:nonzero;stroke:none"
       id="path58" />
    <path
       d="m 172.96904,725.9843 403.79499,0 0,-0.6378 -403.79499,0 0,0.6378 z"
       style="fill:#231f20;fill-opacity:1;fill-rule:nonzero;stroke:none"
       id="path60" />
    <path
       d="m 172.96904,331.6143 403.79499,0 0,-0.28343 -403.79499,0 0,0.28343 z"
       style="fill:#231f20;fill-opacity:1;fill-rule:nonzero;stroke:none"
       id="path62" />
    <text
       y="291.07919"
       x="172.96928"
       style="font-variant:normal;font-weight:normal;font-size:9.99987507px;font-family:AdvP0068;-inkscape-font-specification:AdvP0068;writing-mode:lr-tb;fill:#231f20;fill-opacity:1;fill-rule:nonzero;stroke:none"
       id="text64">
      <tspan
         x="172.96928 178.48921 184.00916 190.04907 192.74904 200.53595"
         y="291.07919"
         id="tspan66">Table3</tspan>
    </text>
    <text
       y="291.07919"
       x="211.0238"
       style="font-variant:normal;font-weight:normal;font-size:9.99987507px;font-family:AdvP10087B;-inkscape-font-specification:AdvP10087B;writing-mode:lr-tb;fill:#231f20;fill-opacity:1;fill-rule:nonzero;stroke:none"
       id="text68">
      <tspan
         x="211.0238 218.20372 222.67366 229.80357 233.13353 238.13348 243.48041 246.81036 251.8103 255.66025 259.35422 261.53418 267.05411 274.73203 279.73196 285.07889 290.07883 292.25879 296.72873 300.38571 302.56567 308.67657 314.19653 319.73145 325.2514 328.58136 333.40829 338.92819 341.10818 345.57812 348.71509 354.23502 357.56497 363.59689 369.11685 374.58078 380.10068 385.10065 388.4306 392.72253 397.72247 399.90244 404.20239 409.20233 416.95825 420.28821 422.4682 426.17111 431.17108 437.22601 442.74594 448.28088 450.46082 455.46078 460.46072 464.72165 466.90164 472.42154 480.09946 483.42941 488.94937 496.11526 501.1152"
         y="291.07919"
         id="tspan70">OLSregressionanalysisofpredictorsofperceivedrisksofleavingtheEU</tspan>
    </text>
    <text
       y="320.41779"
       x="172.96928"
       style="font-variant:normal;font-weight:normal;font-size:9.99987507px;font-family:AdvP0068;-inkscape-font-specification:AdvP0068;writing-mode:lr-tb;fill:#231f20;fill-opacity:1;fill-rule:nonzero;stroke:none"
       id="text72">
      <tspan
         x="172.96928 178.48921 182.33917 187.8591 193.89903 196.59898 200.96893 204.81889 210.85881 393.43353 551.88953 557.40948 560.10944 565.62939"
         y="320.41779"
         id="tspan74">PredictorBS.E.</tspan>
    </text>
    <text
       y="350.39444"
       x="172.96928"
       style="font-variant:normal;font-weight:normal;font-size:9.99987507px;font-family:AdvP10087B;-inkscape-font-specification:AdvP10087B;writing-mode:lr-tb;fill:#231f20;fill-opacity:1;fill-rule:nonzero;stroke:none"
       id="text76">
      <tspan
         x="172.96928 179.6292 184.62915 190.14906 195.14902 198.47896 200.65894 205.12889 212.3708 217.37073 220.7007 224.03065 226.21062 229.54057 235.06052 240.58044 245.58038 251.63031 254.96027 260.48019 268.2901 273.29004 276.62 282.13992"
         y="350.39444"
         id="tspan78">Negativeattitudestowards</tspan>
      <tspan
         x="182.96117 185.14113 193.47102 201.80093 203.9809 209.50082 212.8308 217.83072 221.16069 223.34065 228.74059"
         y="362.86728"
         id="tspan80">Immigration</tspan>
    </text>
    <text
       y="362.86728"
       x="401.08646"
       style="font-variant:normal;font-weight:normal;font-size:9.99987507px;font-family:AdvP10087B;-inkscape-font-specification:AdvP10087B;writing-mode:lr-tb;fill:#231f20;fill-opacity:1;fill-rule:nonzero;stroke:none"
       id="text86">
      <tspan
         x="401.08646 406.60638 409.41632 414.93625 420.45621 425.97614 431.49606 437.01599 551.88953 557.40948 560.21948 565.73938 571.25928"
         y="362.86728"
         id="tspan88">0.733***0.077</tspan>
      <tspan
         x="172.9693 177.96922 186.93011 191.40005 196.91998 202.43991 205.76987 209.09984 214.61977 219.03271 224.55264 230.15855 236.8185 245.25339 250.25333 254.72327 260.24319 265.76315 271.28308 279.48196"
         y="375.34012"
         id="tspan90">EUcontrolofUKeconomy</tspan>
    </text>
    <text
       y="375.34012"
       x="401.08646"
       style="font-variant:normal;font-weight:normal;font-size:9.99987507px;font-family:AdvP10087B;-inkscape-font-specification:AdvP10087B;writing-mode:lr-tb;fill:#231f20;fill-opacity:1;fill-rule:nonzero;stroke:none"
       id="text96">
      <tspan
         x="401.08646 406.60638 409.41632 414.93625 420.45621 425.97614 431.49606 437.01599 551.88953 557.40948 560.21948 565.73938 571.25928"
         y="375.34012"
         id="tspan98">0.740***0.139</tspan>
      <tspan
         x="172.9693 177.96922 182.96916 186.29912 189.62909 196.355 198.53497 203.5349 208.53484 214.05476 219.0547 224.63063 226.81061 235.1405 240.14044 245.66039 250.66031"
         y="387.88297"
         id="tspan100">Partyleaderimages</tspan>
      <tspan
         x="182.96117 189.62108 194.62102 202.95091 207.95085 211.28081 216.80074 401.08646 406.60638 409.41632 414.93625 420.45621 425.97614 431.49606 437.01599 551.88953 557.40948 560.21948 565.73938 571.25928"
         y="400.35483"
         id="tspan102">Cameron0.217***0.024</tspan>
      <tspan
         x="182.96117 189.62108 195.14101 198.47096 203.99091 208.46083 401.08646 406.60638 409.41632 414.93625 420.45621 425.97614 431.49606 437.01599 551.88953 557.40948 560.21948 565.73938 571.25928"
         y="412.89764"
         id="tspan104">Corbyn0.149***0.024</tspan>
      <tspan
         x="182.96117 187.43109 192.43105 195.761 200.76094 206.28087"
         y="425.37048"
         id="tspan106">Farage</tspan>
    </text>
    <text
       y="425.37048"
       x="401.08646"
       style="font-variant:normal;font-weight:normal;font-size:9.99987507px;font-family:AdvP10087B;-inkscape-font-specification:AdvP10087B;writing-mode:lr-tb;fill:#231f20;fill-opacity:1;fill-rule:nonzero;stroke:none"
       id="text112">
      <tspan
         x="401.08646 406.60638 409.41632 414.93625 420.45621 425.97614 431.49606 437.01599 551.88953 557.40948 560.21948 565.73938 571.25928"
         y="425.37048"
         id="tspan114">0.202***0.027</tspan>
      <tspan
         x="182.96117 186.29111 191.81105 197.33098 202.85091 206.70087 212.22079"
         y="437.84235"
         id="tspan116">Johnson</tspan>
    </text>
    <text
       y="437.84235"
       x="401.08646"
       style="font-variant:normal;font-weight:normal;font-size:9.99987507px;font-family:AdvP10087B;-inkscape-font-specification:AdvP10087B;writing-mode:lr-tb;fill:#231f20;fill-opacity:1;fill-rule:nonzero;stroke:none"
       id="text122">
      <tspan
         x="401.08646 406.60638 409.41632 414.93625 420.45621 425.97614 431.49606 437.01599 551.88953 557.40948 560.21948 565.73938 571.25928"
         y="437.84235"
         id="tspan124">0.220***0.026</tspan>
      <tspan
         x="172.9693 177.96922 182.96916 186.29912 189.62909 191.80905 195.659 200.65894 206.17886 210.02882 215.54875 217.61473"
         y="450.38516"
         id="tspan126">Partisanship</tspan>
      <tspan
         x="182.96117 189.62108 195.14101 200.66095 204.51089 209.51083 212.84079 217.31073 222.31067 225.64064 227.8206 232.29054 401.08646 406.60638 409.41632 414.93625 420.45621 425.97614 551.88855 557.40851 560.21844 565.73834 571.2583"
         y="462.858"
         id="tspan128">Conservative0.384*0.166</tspan>
      <tspan
         x="182.96117 187.43109 192.43105 197.95099 203.4709 208.99083 401.08646 406.60638 409.41632 414.93625 420.45621 425.97614 431.49606 551.88953 557.40948 560.21948 565.73938 571.25928"
         y="475.40085"
         id="tspan130">Labour0.419**0.165</tspan>
      <tspan
         x="182.96117 187.43109 189.61108 195.13101 200.13095 203.46091 208.46083 212.86679 219.5267 224.52666 232.85654 238.37648 242.84641 246.17638 251.17632 401.08646 406.60638 409.41632 414.93625 420.45621 425.97614 551.88855 557.40851 560.21844 565.73834 571.2583"
         y="487.87372"
         id="tspan132">LiberalDemocrat0.401*0.240</tspan>
      <tspan
         x="182.96117 189.62108 195.761 197.94096"
         y="500.34656"
         id="tspan134">UKIP</tspan>
    </text>
    <text
       y="500.34656"
       x="401.08646"
       style="font-variant:normal;font-weight:normal;font-size:9.99987507px;font-family:AdvP10087B;-inkscape-font-specification:AdvP10087B;writing-mode:lr-tb;fill:#231f20;fill-opacity:1;fill-rule:nonzero;stroke:none"
       id="text140">
      <tspan
         x="401.08646 406.60638 409.41632 414.93625 420.45621 551.88953 557.40948 560.21948 565.73938 571.25928"
         y="500.34656"
         id="tspan142">0.1590.230</tspan>
      <tspan
         x="182.96117 187.96109 194.62102 401.08646 406.60638 409.41632 414.93625 420.45621 551.88953 557.40948 560.21948 565.73938 571.25928"
         y="512.8894"
         id="tspan144">SNP0.0610.378</tspan>
      <tspan
         x="182.96117 190.14108 193.47102 198.99097 203.99091 209.53584 215.05576 220.05571 223.38565 226.71561 228.89558 233.89552"
         y="525.36224"
         id="tspan146">Otherparties</tspan>
    </text>
    <text
       y="525.36224"
       x="401.08646"
       style="font-variant:normal;font-weight:normal;font-size:9.99987507px;font-family:AdvP10087B;-inkscape-font-specification:AdvP10087B;writing-mode:lr-tb;fill:#231f20;fill-opacity:1;fill-rule:nonzero;stroke:none"
       id="text152">
      <tspan
         x="401.08646 406.60638 409.41632 414.93625 420.45621 551.88953 557.40948 560.21948 565.73938 571.25928"
         y="525.36224"
         id="tspan154">0.2780.284</tspan>
      <tspan
         x="172.9693 179.6292 184.62915 187.95911 190.13907 195.659 201.17894 206.17886 210.59882 212.77879 218.29871 223.29866 228.8186 232.14853 234.32852 237.65848"
         y="537.83508"
         id="tspan156">Nationalidentity</tspan>
      <tspan
         x="182.96117 187.96109 193.48103 199.00096 201.18092 203.36092 207.21086"
         y="550.37793"
         id="tspan158">English</tspan>
    </text>
    <text
       y="550.37793"
       x="401.08646"
       style="font-variant:normal;font-weight:normal;font-size:9.99987507px;font-family:AdvP10087B;-inkscape-font-specification:AdvP10087B;writing-mode:lr-tb;fill:#231f20;fill-opacity:1;fill-rule:nonzero;stroke:none"
       id="text164">
      <tspan
         x="401.08646 406.60638 409.41632 414.93625 420.45621 551.88953 557.40948 560.21948 565.73938 571.25928"
         y="550.37793"
         id="tspan166">0.1050.123</tspan>
      <tspan
         x="182.96117 187.96109 192.43105 197.95099 201.28093 204.61089 206.79086 210.64082 401.08646 406.60638 409.41632 414.93625 420.45621 551.88953 557.40948 560.21948 565.73938 571.25928"
         y="562.85077"
         id="tspan168">Scottish0.3480.279</tspan>
      <tspan
         x="182.96117 192.43105 197.43098 199.61095 203.46091"
         y="575.39362"
         id="tspan170">Welsh</tspan>
    </text>
    <text
       y="575.39362"
       x="401.08646"
       style="font-variant:normal;font-weight:normal;font-size:9.99987507px;font-family:AdvP10087B;-inkscape-font-specification:AdvP10087B;writing-mode:lr-tb;fill:#231f20;fill-opacity:1;fill-rule:nonzero;stroke:none"
       id="text176">
      <tspan
         x="401.08646 406.60638 409.41632 414.93625 420.45621 551.88953 557.40948 560.21948 565.73938 571.25928"
         y="575.39362"
         id="tspan178">0.3010.314</tspan>
      <tspan
         x="182.96117 187.96109 193.48103 196.81097 202.33092 207.85085 212.85078 217.85074 401.08646 406.60638 409.41632 414.93625 420.45621 425.97614 551.88855 557.40851 560.21844 565.73834 571.2583"
         y="587.86646"
         id="tspan180">European0.771*0.364</tspan>
      <tspan
         x="182.96117 190.14108 193.47102 198.99097 203.99091"
         y="600.33929"
         id="tspan182">Other</tspan>
    </text>
    <text
       y="600.33929"
       x="401.08646"
       style="font-variant:normal;font-weight:normal;font-size:9.99987507px;font-family:AdvP10087B;-inkscape-font-specification:AdvP10087B;writing-mode:lr-tb;fill:#231f20;fill-opacity:1;fill-rule:nonzero;stroke:none"
       id="text188">
      <tspan
         x="401.08646 406.60638 409.41632 414.93625 420.45621 551.88953 557.40948 560.21948 565.73938 571.25928"
         y="600.33929"
         id="tspan190">0.1310.273</tspan>
      <tspan
         x="172.9693 179.6292 184.62915 192.95903 198.47897 203.4789 205.65889 211.1788 218.89072 223.36066 228.88058 234.40051 237.73047 242.73042 247.20036"
         y="612.88214"
         id="tspan192">Campaigncontact</tspan>
      <tspan
         x="182.96117 188.48109 193.48103 201.81093 206.81087 208.99083 216.69374 221.16368 226.16362 234.49352 240.01346 245.01338 247.19336 252.71329 401.08646 406.60638 409.41632 414.93625 420.45621"
         y="625.35498"
         id="tspan194">Remaincampaign0.117</tspan>
    </text>
    <text
       y="658.66913"
       x="401.57559"
       transform="scale(1.0607253,0.94275114)"
       style="font-variant:normal;font-weight:normal;font-size:7.07039785px;font-family:AdvP10087B;-inkscape-font-specification:AdvP10087B;writing-mode:lr-tb;fill:#231f20;fill-opacity:1;fill-rule:nonzero;stroke:none"
       id="text196">
      <tspan
         x="401.57559"
         y="658.66913"
         id="tspan198">†</tspan>
    </text>
    <text
       y="625.35468"
       x="551.8905"
       style="font-variant:normal;font-weight:normal;font-size:9.99987507px;font-family:AdvP10087B;-inkscape-font-specification:AdvP10087B;writing-mode:lr-tb;fill:#231f20;fill-opacity:1;fill-rule:nonzero;stroke:none"
       id="text200">
      <tspan
         x="551.8905 557.41046 560.22046 565.74036 571.26031"
         y="625.35468"
         id="tspan202">0.073</tspan>
      <tspan
         x="182.96315 187.43311 192.43303 197.43295 201.90289 209.11282 213.58278 218.5827 226.91258 232.43253 237.43246 239.61244 245.13235"
         y="637.89752"
         id="tspan204">Leavecampaign</tspan>
    </text>
    <text
       y="637.89752"
       x="401.08844"
       style="font-variant:normal;font-weight:normal;font-size:9.99987507px;font-family:AdvP10087B;-inkscape-font-specification:AdvP10087B;writing-mode:lr-tb;fill:#231f20;fill-opacity:1;fill-rule:nonzero;stroke:none"
       id="text210">
      <tspan
         x="401.08844 406.60837 409.4183 414.93826 420.45819 551.89154 557.41144 560.22144 565.74133 571.26129"
         y="637.89752"
         id="tspan212">0.0310.106</tspan>
      <tspan
         x="172.97128 177.97121 183.49115 187.96111 190.14107 195.661 198.99095 204.51088 209.51082 217.84071 223.36066 228.74258 232.07256 237.07248 242.59242 248.11235 250.29231 254.76225"
         y="650.37036"
         id="tspan214">Socio-demographics</tspan>
      <tspan
         x="182.96317 189.62306 195.14299"
         y="662.8432"
         id="tspan216">Age</tspan>
    </text>
    <text
       y="662.8432"
       x="401.08844"
       style="font-variant:normal;font-weight:normal;font-size:9.99987507px;font-family:AdvP10087B;-inkscape-font-specification:AdvP10087B;writing-mode:lr-tb;fill:#231f20;fill-opacity:1;fill-rule:nonzero;stroke:none"
       id="text222">
      <tspan
         x="401.08844 406.60837 409.4183 414.93826 420.45819 425.97812 431.49805 437.01797 551.89154 557.41144 560.22144 565.74133 571.26129"
         y="662.8432"
         id="tspan224">0.024***0.003</tspan>
      <tspan
         x="182.96317 189.62306 195.14299 197.32298 201.79292 206.79285 210.12282 213.97276 216.15274 219.48271 226.19162 231.19156 236.71149 242.2314 246.70134 251.70131 255.03125 257.08923 262.60916 401.08844 406.60837 409.4183 414.93826 420.45819 551.89154 557.41144 560.22144 565.74133 571.26129"
         y="675.38605"
         id="tspan226">Universityeducation0.0580.117</tspan>
      <tspan
         x="182.96317 190.14307 195.14299 200.66293 206.18286 211.1828"
         y="687.85889"
         id="tspan228">Gender</tspan>
    </text>
    <text
       y="687.85889"
       x="401.08844"
       style="font-variant:normal;font-weight:normal;font-size:9.99987507px;font-family:AdvP10087B;-inkscape-font-specification:AdvP10087B;writing-mode:lr-tb;fill:#231f20;fill-opacity:1;fill-rule:nonzero;stroke:none"
       id="text234">
      <tspan
         x="401.08844 406.60837 409.4183 414.93826 420.45819 551.89154 557.41144 560.22144 565.74133 571.26129"
         y="687.85889"
         id="tspan236">0.0130.108</tspan>
      <tspan
         x="182.96317 187.96309 193.48303 197.95297 200.13293 205.13289 209.53783 214.00777 216.18774 221.18767 225.03763 401.08844 406.60837 409.4183 414.93826 420.45819 551.89154 557.41144 560.22144 565.74133 571.26129"
         y="700.40173"
         id="tspan238">Socialclass0.0640.051</tspan>
      <tspan
         x="172.97128 179.6312 185.15112 190.67107 194.52101 197.85097 202.85091 208.37083 401.08844 406.60837 409.4183 414.93826 420.45819 425.97812 431.49805 437.01797 551.89154 557.41144 560.22144 565.74133 571.26129"
         y="712.87457"
         id="tspan240">Constant6.827***0.311</tspan>
    </text>
    <text
       y="741.1499"
       x="172.96928"
       style="font-variant:normal;font-weight:normal;font-size:8.74987507px;font-family:AdvP0074;-inkscape-font-specification:AdvP0074;writing-mode:lr-tb;fill:#231f20;fill-opacity:1;fill-rule:nonzero;stroke:none"
       id="text242">
      <tspan
         x="172.96928"
         y="741.1499"
         id="tspan244">R</tspan>
    </text>
    <text
       y="782.00677"
       x="167.68011"
       transform="scale(1.0607044,0.94276973)"
       style="font-variant:normal;font-weight:normal;font-size:6.18669081px;font-family:AdvP10087B;-inkscape-font-specification:AdvP10087B;writing-mode:lr-tb;fill:#231f20;fill-opacity:1;fill-rule:nonzero;stroke:none"
       id="text246">
      <tspan
         x="167.68011"
         y="782.00677"
         id="tspan248">2</tspan>
    </text>
    <text
       y="741.1499"
       x="182.89053"
       style="font-variant:normal;font-weight:normal;font-size:8.74987507px;font-family:AdvP4C4E74;-inkscape-font-specification:AdvP4C4E74;writing-mode:lr-tb;fill:#231f20;fill-opacity:1;fill-rule:nonzero;stroke:none"
       id="text250">
      <tspan
         x="182.89053"
         y="741.1499"
         id="tspan252">¼</tspan>
    </text>
    <text
       y="741.1499"
       x="191.11104"
       style="font-variant:normal;font-weight:normal;font-size:8.74987507px;font-family:AdvP10087B;-inkscape-font-specification:AdvP10087B;writing-mode:lr-tb;fill:#231f20;fill-opacity:1;fill-rule:nonzero;stroke:none"
       id="text254">
      <tspan
         x="191.11104 195.94096 198.39969 203.22961"
         y="741.1499"
         id="tspan256">0.69</tspan>
      <tspan
         x="172.96906"
         y="751.14227"
         id="tspan258">N</tspan>
    </text>
    <text
       y="751.14227"
       x="180.2682"
       style="font-variant:normal;font-weight:normal;font-size:8.74987507px;font-family:AdvP4C4E74;-inkscape-font-specification:AdvP4C4E74;writing-mode:lr-tb;fill:#231f20;fill-opacity:1;fill-rule:nonzero;stroke:none"
       id="text260">
      <tspan
         x="180.2682"
         y="751.14227"
         id="tspan262">¼</tspan>
    </text>
    <text
       y="751.14227"
       x="188.48871"
       style="font-variant:normal;font-weight:normal;font-size:8.74987507px;font-family:AdvP10087B;-inkscape-font-specification:AdvP10087B;writing-mode:lr-tb;fill:#231f20;fill-opacity:1;fill-rule:nonzero;stroke:none"
       id="text264">
      <tspan
         x="188.48871 193.31863 198.14856 202.9785"
         y="751.14227"
         id="tspan266">1736</tspan>
      <tspan
         x="172.96906 177.79898 182.62892 187.45885"
         y="761.13464"
         id="tspan268">***p</tspan>
    </text>
    <text
       y="761.13464"
       x="202.02388"
       style="font-variant:normal;font-weight:normal;font-size:8.74987507px;font-family:AdvP10087B;-inkscape-font-specification:AdvP10087B;writing-mode:lr-tb;fill:#231f20;fill-opacity:1;fill-rule:nonzero;stroke:none"
       id="text274">
      <tspan
         x="202.02388 206.85382 209.31253 214.14247 218.9724 223.80232 228.31464 233.14458 237.9745"
         y="761.13464"
         id="tspan276">0.001;**p</tspan>
    </text>
    <text
       y="761.13464"
       x="252.48091"
       style="font-variant:normal;font-weight:normal;font-size:8.74987507px;font-family:AdvP10087B;-inkscape-font-specification:AdvP10087B;writing-mode:lr-tb;fill:#231f20;fill-opacity:1;fill-rule:nonzero;stroke:none"
       id="text282">
      <tspan
         x="252.48091 257.31085 259.76956 264.59949 269.42941 273.95312 278.78302"
         y="761.13464"
         id="tspan284">0.01;*p</tspan>
    </text>
    <text
       y="761.13464"
       x="293.29996"
       style="font-variant:normal;font-weight:normal;font-size:8.74987507px;font-family:AdvP10087B;-inkscape-font-specification:AdvP10087B;writing-mode:lr-tb;fill:#231f20;fill-opacity:1;fill-rule:nonzero;stroke:none"
       id="text290">
      <tspan
         x="293.29996 298.12991 300.58859 305.41852 310.24847"
         y="761.13464"
         id="tspan292">0.05,</tspan>
    </text>
    <text
       y="803.20416"
       x="296.75793"
       transform="scale(1.0607044,0.94276973)"
       style="font-variant:normal;font-weight:normal;font-size:6.18669081px;font-family:AdvP10087B;-inkscape-font-specification:AdvP10087B;writing-mode:lr-tb;fill:#231f20;fill-opacity:1;fill-rule:nonzero;stroke:none"
       id="text294">
      <tspan
         x="296.75793"
         y="803.20416"
         id="tspan296">†</tspan>
    </text>
    <text
       y="761.13416"
       x="318.38666"
       style="font-variant:normal;font-weight:normal;font-size:8.74987507px;font-family:AdvP10087B;-inkscape-font-specification:AdvP10087B;writing-mode:lr-tb;fill:#231f20;fill-opacity:1;fill-rule:nonzero;stroke:none"
       id="text298">
      <tspan
         x="318.38666"
         y="761.13416"
         id="tspan300">p</tspan>
    </text>
    <text
       y="761.13416"
       x="332.91406"
       style="font-variant:normal;font-weight:normal;font-size:8.74987507px;font-family:AdvP10087B;-inkscape-font-specification:AdvP10087B;writing-mode:lr-tb;fill:#231f20;fill-opacity:1;fill-rule:nonzero;stroke:none"
       id="text306">
      <tspan
         x="332.91406 337.74402 340.20273 345.03265 349.86258 354.38626 359.21619 364.04614 368.42105 371.33478 374.24847 378.62344 380.53088 382.43839 386.81329 393.71609 396.62979 401.00473 404.37344 407.28714"
         y="761.13416"
         id="tspan308">0.10,one-tailedtest.</tspan>
    </text>
    <text
       y="771.12653"
       x="172.96899"
       style="font-variant:normal;font-weight:normal;font-size:8.74987507px;font-family:AdvP0074;-inkscape-font-specification:AdvP0074;writing-mode:lr-tb;fill:#231f20;fill-opacity:1;fill-rule:nonzero;stroke:none"
       id="text310">
      <tspan
         x="172.96899 178.7964 183.62634 186.4438"
         y="771.12653"
         id="tspan312">Note</tspan>
    </text>
    <text
       y="771.12653"
       x="190.89836"
       style="font-variant:normal;font-weight:normal;font-size:8.74987507px;font-family:AdvP10087B;-inkscape-font-specification:AdvP10087B;writing-mode:lr-tb;fill:#231f20;fill-opacity:1;fill-rule:nonzero;stroke:none"
       id="text314">
      <tspan
         x="190.89836 195.36253 200.19247 202.09995 205.46866 211.87444 216.24937 219.61807 222.98677 227.36171 230.73041 234.19626 241.48489 245.85982 250.68974 255.59756 258.96625 262.96759 267.79752 270.71121 275.08615 280.47083 284.38202 288.75696 291.67065 297.61969 300.53339 303.44714 308.27707 317.60355 324.47745 327.39114 334.2572 339.08713 345.94965 352.78329 354.6908 357.60449 364.51602 369.34595 371.25342 376.08334 380.91327 385.28821 390.23978 393.60849 397.51965 402.34958 405.26331 409.63824 415.04214 416.94965 421.77957 426.6095 428.51697 432.54541 436.92032 439.83408 441.74155 446.57147 453.45059 458.28055 461.19424 465.56921 469.94412 472.85782 477.23276 482.22195 487.05191 491.42682 494.34052 498.25174 502.62665 504.53412 508.44534 512.82025 519.70905 522.62274 524.53021 527.89893 532.27386 537.70837 542.53833 547.48816 549.39557 553.77057 558.14551 562.0567 563.96417 568.79407"
         y="771.12653"
         id="tspan316">:Riskassessmentscoresvaryfrom0to10withhigherscoresindicatinggreaterperceivedrisksofleaving</tspan>
      <tspan
         x="172.96899 175.88269 180.71263 187.14204 191.51697 197.34439"
         y="781.1189"
         id="tspan318">theEU.</tspan>
    </text>
  </g>
</svg>
