<?xml version="1.0" encoding="UTF-8" standalone="no"?>
<svg
   xmlns:dc="http://purl.org/dc/elements/1.1/"
   xmlns:cc="http://creativecommons.org/ns#"
   xmlns:rdf="http://www.w3.org/1999/02/22-rdf-syntax-ns#"
   xmlns:svg="http://www.w3.org/2000/svg"
   xmlns="http://www.w3.org/2000/svg"
   version="1.1"
   id="svg8764"
   viewBox="0 0 503.21519 342.57255"
   height="96.681587mm"
   width="142.01851mm">
  <defs
     id="defs8766" />
  <metadata
     id="metadata8769">
    <rdf:RDF>
      <cc:Work
         rdf:about="">
        <dc:format>image/svg+xml</dc:format>
        <dc:type
           rdf:resource="http://purl.org/dc/dcmitype/StillImage" />
        <dc:title></dc:title>
      </cc:Work>
    </rdf:RDF>
  </metadata>
  <g
     transform="translate(-157.15317,-498.36009)"
     id="layer1">
    <g
       transform="matrix(1.25,0,0,-1.25,161.2036,519.6085)"
       id="g210">
      <path
         id="path212"
         style="fill:#231f20;fill-opacity:1;fill-rule:evenodd;stroke:#231f20;stroke-width:0.80000001;stroke-linecap:round;stroke-linejoin:round;stroke-miterlimit:10;stroke-dasharray:none;stroke-opacity:1"
         d="m 0,0 394.583,0 0,-1.02 L 0,-1.02" />
    </g>
    <g
       transform="matrix(1.25,0,0,-1.25,654.4311,820.2935)"
       id="g214">
      <path
         id="path216"
         style="fill:#231f20;fill-opacity:1;fill-rule:evenodd;stroke:#231f20;stroke-width:0.80000001;stroke-linecap:round;stroke-linejoin:round;stroke-miterlimit:10;stroke-dasharray:none;stroke-opacity:1"
         d="m 0,0 -394.583,0 0,0.964 394.583,0" />
    </g>
    <g
       transform="matrix(1.25,0,0,-1.25,320.08485,580.05725)"
       id="g218">
      <path
         id="path220"
         style="fill:#231f20;fill-opacity:1;fill-rule:evenodd;stroke:#231f20;stroke-width:0.80000001;stroke-linecap:round;stroke-linejoin:round;stroke-miterlimit:10;stroke-dasharray:none;stroke-opacity:1"
         d="m 0,0 -59.868,0 0,0.51 59.868,0" />
    </g>
    <g
       transform="matrix(1.25,0,0,-1.25,405.4786,580.05725)"
       id="g222">
      <path
         id="path224"
         style="fill:#231f20;fill-opacity:1;fill-rule:evenodd;stroke:#231f20;stroke-width:0.80000001;stroke-linecap:round;stroke-linejoin:round;stroke-miterlimit:10;stroke-dasharray:none;stroke-opacity:1"
         d="m 0,0 -59.811,0 0,0.51 59.811,0" />
    </g>
    <g
       transform="matrix(1.25,0,0,-1.25,488.0386,580.05725)"
       id="g226">
      <path
         id="path228"
         style="fill:#231f20;fill-opacity:1;fill-rule:evenodd;stroke:#231f20;stroke-width:0.80000001;stroke-linecap:round;stroke-linejoin:round;stroke-miterlimit:10;stroke-dasharray:none;stroke-opacity:1"
         d="m 0,0 -57.543,0 0,0.51 57.543,0" />
    </g>
    <g
       transform="matrix(1.25,0,0,-1.25,573.4311,580.05725)"
       id="g230">
      <path
         id="path232"
         style="fill:#231f20;fill-opacity:1;fill-rule:evenodd;stroke:#231f20;stroke-width:0.80000001;stroke-linecap:round;stroke-linejoin:round;stroke-miterlimit:10;stroke-dasharray:none;stroke-opacity:1"
         d="m 0,0 -59.811,0 0,0.51 59.811,0" />
    </g>
    <g
       transform="matrix(1.25,0,0,-1.25,655.9911,580.05725)"
       id="g234">
      <path
         id="path236"
         style="fill:#231f20;fill-opacity:1;fill-rule:evenodd;stroke:#231f20;stroke-width:0.80000001;stroke-linecap:round;stroke-linejoin:round;stroke-miterlimit:10;stroke-dasharray:none;stroke-opacity:1"
         d="m 0,0 -57.543,0 0,0.51 57.543,0" />
    </g>
    <g
       transform="matrix(1.25,0,0,-1.25,655.9911,614.5685)"
       id="g238">
      <path
         id="path240"
         style="fill:#231f20;fill-opacity:1;fill-rule:evenodd;stroke:#231f20;stroke-width:0.80000001;stroke-linecap:round;stroke-linejoin:round;stroke-miterlimit:10;stroke-dasharray:none;stroke-opacity:1"
         d="m 0,0 -395.83,0 0,0.454 395.83,0" />
    </g>
    <text
       id="text242"
       style="font-variant:normal;font-weight:normal;font-size:11.83074951px;font-family:AdvTT9f665322;-inkscape-font-specification:AdvTT9f665322;writing-mode:lr-tb;fill:#231f20;fill-opacity:1;fill-rule:nonzero;stroke:none"
       x="161.20348"
       y="510.892">
      <tspan
         id="tspan244"
         y="510.892"
         x="161.20348 169.08275 174.99812 182.14391 185.95341 196.21068 202.12605 210.31291 222.14366 229.28944 233.09895 236.90846 240.71794 247.24852 253.16389 257.71872 261.52823 267.4436 271.25311 281.10693 290.21661 297.36237 303.27777 307.08728 313.61786 318.78784 322.59735 331.7757 338.30621 346.7995 353.94531 361.09106 368.23688 375.38263 381.91321 386.46808 394.20892 398.76373 405.29431 413.76752 420.91327 426.82867 432.74402 439.2746">Table2:MultivariateAnalysisofSupportforLeave</tspan>
    </text>
    <text
       id="text246"
       style="font-variant:normal;font-weight:normal;font-size:11.83074951px;font-family:AdvTTb8864ccf;-inkscape-font-specification:AdvTTb8864ccf;writing-mode:lr-tb;fill:#231f20;fill-opacity:1;fill-rule:nonzero;stroke:none"
       x="445.23492"
       y="510.892">
      <tspan
         id="tspan248"
         y="510.892"
         x="445.23492">—</tspan>
    </text>
    <text
       id="text250"
       style="font-variant:normal;font-weight:normal;font-size:11.83074951px;font-family:AdvTT9f665322;-inkscape-font-specification:AdvTT9f665322;writing-mode:lr-tb;fill:#231f20;fill-opacity:1;fill-rule:nonzero;stroke:none"
       x="456.99823"
       y="510.892">
      <tspan
         id="tspan252"
         y="510.892"
         x="456.99823 460.80774 464.61725 471.763 477.67841 483.59375 492.1474 496.70221 502.61761 509.14819 513.703 519.61841 524.78845 529.95844 533.76794 540.29852">linearregression</tspan>
    </text>
    <text
       id="text254"
       style="font-variant:normal;font-weight:normal;font-size:10.83437443px;font-family:AdvTTc999d02f;-inkscape-font-specification:AdvTTc999d02f;writing-mode:lr-tb;fill:#231f20;fill-opacity:1;fill-rule:nonzero;stroke:none"
       x="261.47897"
       y="533.56915">
      <tspan
         id="tspan256"
         y="533.56915"
         x="261.47897 271.63077 277.49219 284.03613 289.10663 295.77844 301.19562">Model1:</tspan>
      <tspan
         id="tspan258"
         y="545.75781"
         x="248.01402 256.35648 261.42694 270.90704 276.76843 282.74902 286.92023 292.3374 298.76221 304.95947 308.00391 312.73853">Demographics</tspan>
      <tspan
         id="tspan260"
         y="533.56915"
         x="344.17993 354.33173 360.19312 366.73706 371.80756 378.47937 383.89655 389.31372">Model2a:</tspan>
      <tspan
         id="tspan262"
         y="545.75781"
         x="360.69147 367.23547">EU</tspan>
      <tspan
         id="tspan264"
         y="557.94647"
         x="338.22644 341.83429 351.31433 360.79443 363.83887 369.81946 373.99066 379.4079 382.89655 385.94098 391.80243">Immigration</tspan>
      <tspan
         id="tspan266"
         y="533.56805"
         x="427.87219 438.02399 443.88538 450.42938 455.49988 462.17163 467.58887 473.5694">Model2b:</tspan>
      <tspan
         id="tspan268"
         y="545.75671"
         x="429.99786 436.54187 444.88434 459.26587 465.80988">E&amp;WEU</tspan>
      <tspan
         id="tspan270"
         y="557.94537"
         x="422.20258 425.81042 435.29053 444.77057 447.815 453.79559 457.96686 463.38403 466.87268 469.91718 475.77856">Immigration</tspan>
      <tspan
         id="tspan272"
         y="570.13409"
         x="435.24176 439.97638 446.17365 451.59082 457.78809 463.76862">change</tspan>
      <tspan
         id="tspan274"
         y="533.56696"
         x="514.82452 524.97638 530.83777 537.38171 542.45221 549.12402 554.5412">Model3:</tspan>
      <tspan
         id="tspan276"
         y="545.75562"
         x="520.91888 527.46283 530.95154 537.1488 543.34607 546.3905">Ethnic</tspan>
      <tspan
         id="tspan278"
         y="557.94434"
         x="515.03693 521.58087 524.62531 530.71423 535.78473 539.95599 544.46307 547.50751 550.99622">diversity</tspan>
      <tspan
         id="tspan280"
         y="533.56592"
         x="598.80072 608.95251 614.8139 621.35785 626.42834 633.10022 638.5174">Model4:</tspan>
      <tspan
         id="tspan282"
         y="545.75458"
         x="606.95032 615.29279 623.0719 626.67969">UKIP</tspan>
      <tspan
         id="tspan284"
         y="593.0932"
         x="245.24907 252.91982 258.78119 263.85168 267.34036 301.37549 307.00934 310.49799 317.04199">Coef.Std.</tspan>
      <tspan
         id="tspan286"
         y="605.28186"
         x="301.80017 308.34412 312.51538 316.68658">Err.</tspan>
      <tspan
         id="tspan288"
         y="593.0932"
         x="340.91876 348.58948 354.45087 359.52136 363.01007 386.84027 392.47412 395.96277 402.50677">Coef.Std.</tspan>
      <tspan
         id="tspan290"
         y="605.28186"
         x="387.26495 393.80896 397.98016 402.15143">Err.</tspan>
      <tspan
         id="tspan292"
         y="593.0932"
         x="424.8949 432.56561 438.42706 443.49756 446.98621 469.32886 474.96271 478.45142 484.99536">Coef.Std.</tspan>
      <tspan
         id="tspan294"
         y="605.28186"
         x="469.75354 476.29755 480.46875 484.63995">Err.</tspan>
      <tspan
         id="tspan296"
         y="593.0932"
         x="508.87213 516.54291 522.4043 527.47479 530.96344 554.79364 560.42755 563.9162 570.46014">Coef.Std.</tspan>
      <tspan
         id="tspan298"
         y="605.28186"
         x="555.14795 561.69189 565.8631 570.03436">Err.</tspan>
      <tspan
         id="tspan300"
         y="593.0932"
         x="592.84833 600.51904 606.38043 611.45093 614.93958 637.28223 642.91614 646.40479 652.94873">Coef.Std.</tspan>
      <tspan
         id="tspan302"
         y="605.28186"
         x="637.70691 644.25092 648.42218 652.59338">Err.</tspan>
      <tspan
         id="tspan304"
         y="627.25073"
         x="161.2025 173.81697 182.15944 188.14 196.84868 202.26585 211.30498 216.72218 222.91942">%Age65and</tspan>
      <tspan
         id="tspan306"
         y="639.51093"
         x="166.58827 172.44966 178.53859 183.60909">over</tspan>
      <tspan
         id="tspan308"
         y="627.25073"
         x="258.99789 264.41507 267.12366 272.54086 277.95807 282.12927 286.30054 301.09271 306.50989 309.21844 314.63568 344.46271 349.87988 352.58844 358.00568 363.42285 367.59406 386.5575 391.97467 394.68329 400.10046 426.95129 432.36847 435.07703 440.49426 445.91144 450.0827 469.04608 474.46326 477.17188 482.58905 512.41608 517.83325 520.54187 525.95905 531.37622 554.51086 559.92804 562.63666 568.05383">0.30***0.090.23**0.100.30**0.110.19*0.11</tspan>
    </text>
    <text
       id="text314"
       style="font-variant:normal;font-weight:normal;font-size:10.83437443px;font-family:AdvTTc999d02f;-inkscape-font-specification:AdvTTc999d02f;writing-mode:lr-tb;fill:#231f20;fill-opacity:1;fill-rule:nonzero;stroke:none"
       x="594.90356"
       y="627.25073">
      <tspan
         id="tspan316"
         y="627.25073"
         x="594.90356 600.3208 603.02936 608.44653 613.86377 618.03497 622.20624 636.99841 642.41559 645.12415 650.54138">0.33***0.68</tspan>
      <tspan
         id="tspan318"
         y="651.69958"
         x="161.20247 173.81697 180.01424">%no</tspan>
      <tspan
         id="tspan320"
         y="663.88824"
         x="166.58827 172.56883 178.99361 184.41084 187.45528">quali</tspan>
    </text>
    <text
       id="text322"
       style="font-variant:normal;font-weight:normal;font-size:10.83437443px;font-family:'AdvTTc999d02f +fb';-inkscape-font-specification:'AdvTTc999d02f +fb';writing-mode:lr-tb;fill:#231f20;fill-opacity:1;fill-rule:nonzero;stroke:none"
       x="190.54091"
       y="663.88824">
      <tspan
         id="tspan324"
         y="663.88824"
         x="190.54091">ﬁ</tspan>
    </text>
    <text
       id="text326"
       style="font-variant:normal;font-weight:normal;font-size:10.83437443px;font-family:AdvTTc999d02f;-inkscape-font-specification:AdvTTc999d02f;writing-mode:lr-tb;fill:#231f20;fill-opacity:1;fill-rule:nonzero;stroke:none"
       x="197.06102"
       y="663.88824">
      <tspan
         id="tspan328"
         y="663.88824"
         x="197.06102 201.79567 207.21284 210.70152 213.74596 219.60738 225.80464">cations</tspan>
      <tspan
         id="tspan330"
         y="651.69958"
         x="258.99789 264.41507 267.12366 272.54086 277.95807 282.12927 286.30054 301.09271 306.50989 309.21844 314.63568 344.46271 349.87988 352.58844 358.00568 363.42285 367.59406 371.76532 386.5575 391.97467 394.68329 400.10046 426.95129 432.36847 435.07709 440.49426 445.91144 450.08264 454.25391 469.04608 474.46326 477.17188 482.58905 512.41608 517.83325 520.54187 525.95905 531.37622 535.54742 539.71869 554.51086 559.92804 562.63666 568.05383 594.90466 600.32184 603.03046 608.44763 613.86481 618.03607 622.20728 636.99945 642.41663 645.12524 650.54248">1.16***0.061.12***0.071.07***0.081.16***0.060.76***0.05</tspan>
      <tspan
         id="tspan332"
         y="676.078"
         x="161.2025 173.81697 180.36092 192.3134 201.7935 204.83794 210.81853 214.98976 220.40694 226.6042 230.09288">%EUmigrants</tspan>
    </text>
    <text
       id="text338"
       style="font-variant:normal;font-weight:normal;font-size:10.83437443px;font-family:AdvTTc999d02f;-inkscape-font-specification:AdvTTc999d02f;writing-mode:lr-tb;fill:#231f20;fill-opacity:1;fill-rule:nonzero;stroke:none"
       x="344.46271"
       y="676.078">
      <tspan
         id="tspan340"
         y="676.078"
         x="344.46271 349.87988 352.58844 358.00568 363.42285 386.5575 391.97467 394.68329 400.10046">0.36*0.19</tspan>
    </text>
    <text
       id="text346"
       style="font-variant:normal;font-weight:normal;font-size:10.83437443px;font-family:AdvTTc999d02f;-inkscape-font-specification:AdvTTc999d02f;writing-mode:lr-tb;fill:#231f20;fill-opacity:1;fill-rule:nonzero;stroke:none"
       x="426.9502"
       y="676.078">
      <tspan
         id="tspan348"
         y="676.078"
         x="426.9502 432.36737 435.07599 440.49316 445.91034 450.0816 469.04498 474.46216 477.17078 482.58795">0.61**0.23</tspan>
    </text>
    <text
       id="text354"
       style="font-variant:normal;font-weight:normal;font-size:10.83437443px;font-family:AdvTTc999d02f;-inkscape-font-specification:AdvTTc999d02f;writing-mode:lr-tb;fill:#231f20;fill-opacity:1;fill-rule:nonzero;stroke:none"
       x="594.90253"
       y="676.078">
      <tspan
         id="tspan356"
         y="676.078"
         x="594.90253 600.3197 603.02832 608.4455 613.86267 618.03394 622.20514 636.99731 642.41449 645.12311 650.54028">0.34***0.12</tspan>
      <tspan
         id="tspan358"
         y="688.3382"
         x="161.2014 168.87215 175.06944 180.48662 186.68388 192.66447 201.38289 204.42735">Changein</tspan>
      <tspan
         id="tspan360"
         y="700.52686"
         x="166.5872 173.13115 185.08363 194.56374 197.6082 203.58876 207.75999 213.1772 219.37444 222.86308">EUmigrants</tspan>
      <tspan
         id="tspan362"
         y="688.3382"
         x="426.9491 432.36633 435.07489 440.49207 445.90924 450.08051 469.04395 474.46112 477.16968 482.58685">0.51**0.19</tspan>
      <tspan
         id="tspan364"
         y="712.71661"
         x="161.2014 173.8159 180.01317 185.87456 192.07182 195.56047 204.58549 210.78279 213.82726 217.3159">%non-white</tspan>
    </text>
    <text
       id="text370"
       style="font-variant:normal;font-weight:normal;font-size:10.83437443px;font-family:AdvTTc999d02f;-inkscape-font-specification:AdvTTc999d02f;writing-mode:lr-tb;fill:#231f20;fill-opacity:1;fill-rule:nonzero;stroke:none"
       x="512.41394"
       y="712.71661">
      <tspan
         id="tspan372"
         y="712.71661"
         x="512.41394 517.83112 520.53967 525.95691 554.50873 559.9259 562.63452 568.0517">0.070.04</tspan>
      <tspan
         id="tspan374"
         y="724.90527"
         x="161.20143 167.74541 173.6068 179.80403 186.34801 192.2094">London</tspan>
    </text>
    <text
       id="text380"
       style="font-variant:normal;font-weight:normal;font-size:10.83437443px;font-family:AdvTTc999d02f;-inkscape-font-specification:AdvTTc999d02f;writing-mode:lr-tb;fill:#231f20;fill-opacity:1;fill-rule:nonzero;stroke:none"
       x="258.9968"
       y="724.90527">
      <tspan
         id="tspan382"
         y="724.90527"
         x="258.9968 264.414 267.12259 272.53976 277.95697 282.12817 286.29944 301.09161 306.50879 309.21741 314.63458">8.82***1.26</tspan>
    </text>
    <text
       id="text388"
       style="font-variant:normal;font-weight:normal;font-size:10.83437443px;font-family:AdvTTc999d02f;-inkscape-font-specification:AdvTTc999d02f;writing-mode:lr-tb;fill:#231f20;fill-opacity:1;fill-rule:nonzero;stroke:none"
       x="344.46161"
       y="724.90527">
      <tspan
         id="tspan390"
         y="724.90527"
         x="344.46161 349.87878 352.5874 358.00458 363.42175 367.59302 371.76422 386.5564 391.97357 394.68219 400.09937">7.34***1.48</tspan>
    </text>
    <text
       id="text396"
       style="font-variant:normal;font-weight:normal;font-size:10.83437443px;font-family:AdvTTc999d02f;-inkscape-font-specification:AdvTTc999d02f;writing-mode:lr-tb;fill:#231f20;fill-opacity:1;fill-rule:nonzero;stroke:none"
       x="426.9491"
       y="724.90527">
      <tspan
         id="tspan398"
         y="724.90527"
         x="426.9491 432.36633 435.07489 440.49207 445.9093 450.08051 454.25177 469.04395 474.46112 477.16968 482.58685">6.28***1.58</tspan>
    </text>
    <text
       id="text404"
       style="font-variant:normal;font-weight:normal;font-size:10.83437443px;font-family:AdvTTc999d02f;-inkscape-font-specification:AdvTTc999d02f;writing-mode:lr-tb;fill:#231f20;fill-opacity:1;fill-rule:nonzero;stroke:none"
       x="512.41394"
       y="724.90527">
      <tspan
         id="tspan406"
         y="724.90527"
         x="512.41394 517.83112 520.53967 525.95691 531.37408 535.54529 539.71655 554.50873 559.9259 562.63452 568.0517 594.90253 600.3197 603.02832 608.4455 636.99731 642.41449 645.12311 650.54028">7.37***1.550.121.01</tspan>
      <tspan
         id="tspan408"
         y="737.09399"
         x="161.20143 166.83528 171.56993 177.43135 180.92 183.96446 189.38164 195.5789">Scotland</tspan>
    </text>
    <text
       id="text414"
       style="font-variant:normal;font-weight:normal;font-size:10.83437443px;font-family:AdvTTc999d02f;-inkscape-font-specification:AdvTTc999d02f;writing-mode:lr-tb;fill:#231f20;fill-opacity:1;fill-rule:nonzero;stroke:none"
       x="253.61107"
       y="737.09393">
      <tspan
         id="tspan416"
         y="737.09393"
         x="253.61107 259.02823 264.4454 267.15402 272.5712 277.9884 282.15961 286.33087 301.09161 306.50879 309.21741 314.63458">21.38***1.22</tspan>
    </text>
    <text
       id="text422"
       style="font-variant:normal;font-weight:normal;font-size:10.83437443px;font-family:AdvTTc999d02f;-inkscape-font-specification:AdvTTc999d02f;writing-mode:lr-tb;fill:#231f20;fill-opacity:1;fill-rule:nonzero;stroke:none"
       x="339.07581"
       y="737.09393">
      <tspan
         id="tspan424"
         y="737.09393"
         x="339.07581 344.49304 349.91022 352.61884 358.03601 363.45319 367.62439 371.79565 386.5564 391.97357 394.68219 400.09937">21.47***1.12</tspan>
    </text>
    <text
       id="text430"
       style="font-variant:normal;font-weight:normal;font-size:10.83437443px;font-family:AdvTTc999d02f;-inkscape-font-specification:AdvTTc999d02f;writing-mode:lr-tb;fill:#231f20;fill-opacity:1;fill-rule:nonzero;stroke:none"
       x="506.9577"
       y="737.09393">
      <tspan
         id="tspan432"
         y="737.09393"
         x="506.9577 512.37488 517.79211 520.50067 525.91785 531.33508 535.50629 539.67755 554.50977 559.927 562.63556 568.05273">21.77***1.15</tspan>
    </text>
    <text
       id="text438"
       style="font-variant:normal;font-weight:normal;font-size:10.83437443px;font-family:AdvTTc999d02f;-inkscape-font-specification:AdvTTc999d02f;writing-mode:lr-tb;fill:#231f20;fill-opacity:1;fill-rule:nonzero;stroke:none"
       x="594.90253"
       y="737.09393">
      <tspan
         id="tspan440"
         y="737.09393"
         x="594.90253 600.3197 603.02832 608.4455 613.86267 636.99731 642.41449 645.12311 650.54028">2.15*1.11</tspan>
    </text>
    <text
       id="text442"
       style="font-variant:normal;font-weight:normal;font-size:10.83437443px;font-family:AdvTT9f665322;-inkscape-font-specification:AdvTT9f665322;writing-mode:lr-tb;fill:#231f20;fill-opacity:1;fill-rule:nonzero;stroke:none"
       x="161.20143"
       y="749.35413">
      <tspan
         id="tspan444"
         y="749.35413"
         x="161.20143 169.5439 177.88637 182.0576 192.24083 197.658 203.07518 208.49239">UKIP2014</tspan>
      <tspan
         id="tspan446"
         y="761.54285"
         x="166.5872 173.13115 183.31221 189.2928 195.27336 198.76204">EPvote</tspan>
    </text>
    <text
       id="text448"
       style="font-variant:normal;font-weight:normal;font-size:10.83437443px;font-family:AdvTTc999d02f;-inkscape-font-specification:AdvTTc999d02f;writing-mode:lr-tb;fill:#231f20;fill-opacity:1;fill-rule:nonzero;stroke:none"
       x="594.90253"
       y="749.35413">
      <tspan
         id="tspan450"
         y="749.35413"
         x="594.90253 600.3197 603.02832 608.4455 613.86267 618.03394 622.20514 636.99731 642.41449 645.12311 650.54028">0.84***0.04</tspan>
      <tspan
         id="tspan452"
         y="773.7326"
         x="161.2014 168.87215 174.73357 180.93083 185.43794 188.92659 194.34377 200.54106 253.61214 259.0293 264.44653 267.15512 272.5723 277.9895 282.16071 286.33197 301.09271 306.50989 309.21844 314.63568 339.0769 344.49414 349.91132 352.61993 358.03711 363.45428 367.62549 371.79675 386.5575 391.97467 394.68329 400.10046 421.56549 426.98273 432.3999 435.10852 440.5257 469.04608 474.46326 477.17188 482.58905 506.9599 512.37708 517.79425 520.50287 525.92004 531.33722 535.50848 539.67969 554.51196 559.92914 562.63776 568.05493 589.52002 594.93719 600.35437 603.06299 608.48016 613.89734 618.0686 622.23981 637.00055 642.41772 645.12634 650.54352">Constant23.94***2.0927.11***2.6826.332.9926.41***2.6118.34***1.78</tspan>
      <tspan
         id="tspan454"
         y="785.92126"
         x="161.2014 248.2253 253.64247 259.05966 333.61969 339.03687 344.45404 416.10828 421.52545 426.94263 501.57306 506.99023 512.40741 584.06165 589.47882 594.896">N380380295380380</tspan>
      <tspan
         id="tspan456"
         y="798.18146"
         x="161.2014 169.5439 176.08784 178.56892 184.99373 189.50081 192.98949 198.05998">Adjusted</tspan>
      <tspan
         id="tspan458"
         y="810.37012"
         x="166.5872 173.80287 177.29158 181.79869 187.77925 194.20403 199.6212 203.79243">R-square</tspan>
      <tspan
         id="tspan460"
         y="798.18146"
         x="258.9968 264.41403 267.12262 272.53979 344.46161 349.87878 352.5874 358.00458 426.9502 432.36737 435.07599 440.49316 512.41498 517.83221 520.54077 525.95795 594.90363 600.3208 603.02936 608.44659">0.680.680.620.680.87</tspan>
    </text>
    <text
       id="text462"
       style="font-variant:normal;font-weight:normal;font-size:11.20787525px;font-family:AdvTT05d4dae9;-inkscape-font-specification:AdvTT05d4dae9;writing-mode:lr-tb;fill:#231f20;fill-opacity:1;fill-rule:nonzero;stroke:none"
       x="161.20348"
       y="835.31702">
      <tspan
         id="tspan464"
         y="835.31702"
         x="161.20348 169.83354 174.73137 178.34032 182.65535">Notes</tspan>
    </text>
    <text
       id="text466"
       style="font-variant:normal;font-weight:normal;font-size:9.96275043px;font-family:AdvTTec369687;-inkscape-font-specification:AdvTTec369687;writing-mode:lr-tb;fill:#231f20;fill-opacity:1;fill-rule:nonzero;stroke:none"
       x="190.75459"
       y="835.31702">
      <tspan
         id="tspan468"
         y="835.31702"
         x="190.75459 195.73598 200.71736">***</tspan>
    </text>
    <text
       id="text470"
       style="font-variant:normal;font-weight:normal;font-size:9.96275043px;font-family:AdvTTc999d02f;-inkscape-font-specification:AdvTTc999d02f;writing-mode:lr-tb;fill:#231f20;fill-opacity:1;fill-rule:nonzero;stroke:none"
       x="205.63698"
       y="835.31702">
      <tspan
         id="tspan472"
         y="835.31702"
         x="205.63698 211.65446 216.31703 222.01573 227.40556 230.61357 235.27614 242.70039">denotesp</tspan>
    </text>
    <text
       id="text474"
       style="font-variant:normal;font-weight:normal;font-size:9.96275043px;font-family:AdvTTec369687;-inkscape-font-specification:AdvTTec369687;writing-mode:lr-tb;fill:#231f20;fill-opacity:1;fill-rule:nonzero;stroke:none"
       x="248.58238"
       y="835.31702">
      <tspan
         id="tspan476"
         y="835.31702"
         x="248.58238">&lt;</tspan>
    </text>
    <text
       id="text478"
       style="font-variant:normal;font-weight:normal;font-size:9.96275043px;font-family:AdvTTc999d02f;-inkscape-font-specification:AdvTTc999d02f;writing-mode:lr-tb;fill:#231f20;fill-opacity:1;fill-rule:nonzero;stroke:none"
       x="254.18047"
       y="835.31702">
      <tspan
         id="tspan480"
         y="835.31702"
         x="254.18047 259.1618 261.6525 266.63388 271.61526 276.59662">0.005;</tspan>
    </text>
    <text
       id="text482"
       style="font-variant:normal;font-weight:normal;font-size:9.96275043px;font-family:AdvTTec369687;-inkscape-font-specification:AdvTTec369687;writing-mode:lr-tb;fill:#231f20;fill-opacity:1;fill-rule:nonzero;stroke:none"
       x="282.31427"
       y="835.31702">
      <tspan
         id="tspan484"
         y="835.31702"
         x="282.31427 287.29565">**</tspan>
    </text>
    <text
       id="text486"
       style="font-variant:normal;font-weight:normal;font-size:9.96275043px;font-family:AdvTTc999d02f;-inkscape-font-specification:AdvTTc999d02f;writing-mode:lr-tb;fill:#231f20;fill-opacity:1;fill-rule:nonzero;stroke:none"
       x="295.56671"
       y="835.31702">
      <tspan
         id="tspan488"
         y="835.31702"
         x="295.56671 301.58417 306.24677 311.94543 317.33533 320.54333 325.20587 332.63013">denotesp</tspan>
    </text>
    <text
       id="text490"
       style="font-variant:normal;font-weight:normal;font-size:9.96275043px;font-family:AdvTTec369687;-inkscape-font-specification:AdvTTec369687;writing-mode:lr-tb;fill:#231f20;fill-opacity:1;fill-rule:nonzero;stroke:none"
       x="338.51215"
       y="835.31702">
      <tspan
         id="tspan492"
         y="835.31702"
         x="338.51215">&lt;</tspan>
    </text>
    <text
       id="text494"
       style="font-variant:normal;font-weight:normal;font-size:9.96275043px;font-family:AdvTTc999d02f;-inkscape-font-specification:AdvTTc999d02f;writing-mode:lr-tb;fill:#231f20;fill-opacity:1;fill-rule:nonzero;stroke:none"
       x="344.11017"
       y="835.31702">
      <tspan
         id="tspan496"
         y="835.31702"
         x="344.11017 349.09155 351.58228 356.56366 361.54498">0.05;</tspan>
    </text>
    <text
       id="text498"
       style="font-variant:normal;font-weight:normal;font-size:9.96275043px;font-family:AdvTTec369687;-inkscape-font-specification:AdvTTec369687;writing-mode:lr-tb;fill:#231f20;fill-opacity:1;fill-rule:nonzero;stroke:none"
       x="367.28357"
       y="835.31702">
      <tspan
         id="tspan500"
         y="835.31702"
         x="367.28357">*</tspan>
    </text>
    <text
       id="text502"
       style="font-variant:normal;font-weight:normal;font-size:9.96275043px;font-family:AdvTTc999d02f;-inkscape-font-specification:AdvTTc999d02f;writing-mode:lr-tb;fill:#231f20;fill-opacity:1;fill-rule:nonzero;stroke:none"
       x="375.57458"
       y="835.31702">
      <tspan
         id="tspan504"
         y="835.31702"
         x="375.57458 381.59204 386.25464 391.95331 397.34314 400.55115 405.21375 412.638">denotesp</tspan>
    </text>
    <text
       id="text506"
       style="font-variant:normal;font-weight:normal;font-size:9.96275043px;font-family:AdvTTec369687;-inkscape-font-specification:AdvTTec369687;writing-mode:lr-tb;fill:#231f20;fill-opacity:1;fill-rule:nonzero;stroke:none"
       x="418.5907"
       y="835.31702">
      <tspan
         id="tspan508"
         y="835.31702"
         x="418.5907">&lt;</tspan>
    </text>
    <text
       id="text510"
       style="font-variant:normal;font-weight:normal;font-size:9.96275043px;font-family:AdvTTc999d02f;-inkscape-font-specification:AdvTTc999d02f;writing-mode:lr-tb;fill:#231f20;fill-opacity:1;fill-rule:nonzero;stroke:none"
       x="424.11804"
       y="835.31702">
      <tspan
         id="tspan512"
         y="835.31702"
         x="424.11804 429.09943 431.59009 436.57147">0.10</tspan>
    </text>
  </g>
</svg>
